<?xml version="1.0" standalone="no"?>
<!DOCTYPE svg PUBLIC "-//W3C//DTD SVG 20010904//EN"
 "http://www.w3.org/TR/2001/REC-SVG-20010904/DTD/svg10.dtd">
<svg version="1.0" xmlns="http://www.w3.org/2000/svg"
 width="2816.000000pt" height="1536.000000pt" viewBox="0 0 2816.000000 1536.000000"
 preserveAspectRatio="xMidYMid meet">

<g transform="translate(0.000000,1536.000000) scale(0.100000,-0.100000)"
fill="#000000" stroke="none">
<path d="M13990 13693 c-336 -9 -716 -63 -985 -139 -49 -14 -110 -31 -135 -38
-25 -7 -90 -29 -145 -49 -329 -118 -538 -218 -842 -402 -187 -114 -257 -162
-380 -261 -362 -294 -687 -649 -900 -984 -296 -466 -493 -951 -607 -1490 -73
-345 -96 -856 -56 -1230 20 -193 68 -459 109 -615 41 -154 100 -319 214 -600
76 -187 294 -569 442 -775 323 -449 740 -833 1235 -1138 245 -151 447 -247
760 -360 318 -115 658 -191 995 -222 144 -13 558 -13 708 0 455 40 981 189
1372 390 478 246 835 511 1174 874 29 31 59 55 66 53 6 -3 61 -41 121 -84 153
-111 453 -313 465 -313 17 0 63 27 83 49 18 19 19 64 23 1093 l5 1073 -21 22
c-30 32 -66 38 -109 20 -97 -40 -702 -305 -942 -412 -58 -26 -125 -55 -150
-65 -41 -16 -239 -101 -315 -134 -42 -19 -242 -104 -290 -124 -22 -9 -76 -35
-119 -57 -61 -30 -82 -47 -89 -68 -13 -41 22 -105 75 -139 24 -15 108 -72 188
-127 80 -56 180 -122 223 -147 l78 -47 -33 -36 c-18 -19 -42 -44 -53 -54 -11
-10 -45 -42 -75 -71 -265 -251 -670 -496 -1025 -619 -244 -85 -304 -100 -599
-148 -321 -52 -582 -46 -976 22 -326 57 -716 200 -998 366 -457 268 -809 602
-1115 1057 -96 143 -339 637 -322 654 7 8 140 -35 196 -63 48 -25 62 -36 198
-156 144 -126 333 -280 442 -360 194 -141 506 -293 713 -346 109 -28 229 0
301 70 l35 34 57 -20 c83 -28 203 -29 263 -1 61 29 109 73 118 109 l8 30 95 6
c66 4 109 12 144 28 32 14 59 20 75 16 14 -4 105 -45 203 -92 l178 -85 47 12
c48 12 92 33 342 164 80 42 196 101 258 131 62 30 143 72 180 94 37 21 191
101 342 178 519 263 630 324 658 362 l27 34 3 442 3 441 77 23 c172 50 338
122 427 186 17 11 43 27 58 35 15 8 46 29 67 47 69 59 127 68 505 75 l159 3
12 -50 c7 -27 28 -108 47 -180 20 -71 47 -186 62 -255 43 -203 62 -230 163
-230 47 0 198 21 397 55 50 9 115 20 145 24 127 20 169 42 190 97 24 61 13
458 -20 764 -43 391 -193 898 -384 1295 -294 610 -711 1115 -1282 1551 -72 56
-284 192 -404 261 -249 143 -580 288 -835 365 -408 123 -914 192 -1325 181z
m490 -197 c167 -21 220 -29 345 -52 77 -14 172 -34 210 -46 39 -11 77 -22 85
-23 8 -1 14 -8 12 -15 -1 -7 3 -18 9 -26 7 -8 9 -17 6 -21 -10 -9 -36 17 -31
31 3 7 -2 13 -11 13 -20 0 -19 -10 4 -31 23 -21 17 -48 -7 -39 -9 4 -14 3 -10
-1 3 -4 12 -8 20 -10 7 -1 19 -5 26 -10 20 -12 25 0 7 18 -9 9 -13 16 -8 17 4
0 19 2 32 3 21 3 22 2 7 -10 -11 -8 -13 -14 -7 -19 6 -3 11 -1 11 4 0 18 34
12 52 -8 10 -12 24 -18 37 -14 23 6 40 45 22 51 -6 2 -11 7 -11 12 0 5 34 -3
75 -17 41 -13 75 -29 75 -34 0 -6 -4 -7 -10 -4 -5 3 -10 0 -10 -7 0 -8 9 -14
19 -15 13 -1 18 3 15 12 -9 22 36 10 186 -52 134 -55 211 -94 205 -104 -4 -5
-11 -6 -17 -3 -7 4 -8 2 -4 -5 6 -9 11 -9 21 -1 10 8 21 7 44 -5 35 -18 40
-26 12 -18 -10 3 -22 0 -25 -6 -4 -6 0 -11 9 -11 9 0 14 -4 10 -10 -3 -5 -12
-7 -20 -3 -9 3 -15 -1 -15 -11 0 -9 14 -19 33 -25 17 -5 27 -10 20 -10 -7 -1
-10 -8 -7 -16 4 -8 2 -15 -4 -15 -6 0 -13 6 -15 13 -4 9 -6 9 -6 -1 -1 -8 8
-16 19 -19 11 -3 20 -10 20 -15 0 -5 5 -6 10 -3 6 4 8 11 5 16 -4 5 1 9 10 9
10 0 13 5 9 12 -4 7 -3 8 4 4 7 -4 12 -13 12 -20 0 -8 7 -19 15 -26 9 -7 13
-15 10 -18 -2 -3 -14 6 -25 19 -16 19 -19 20 -13 5 4 -13 3 -17 -5 -12 -17 11
-15 -9 3 -24 13 -11 14 -10 8 6 -6 17 -5 17 10 6 19 -16 41 -6 33 14 -3 8 -1
14 4 14 9 0 14 -20 12 -41 -1 -3 6 -6 14 -6 7 0 14 4 14 9 0 5 5 6 10 3 6 -4
7 -11 4 -17 -4 -6 -2 -8 4 -4 6 3 14 1 17 -4 5 -8 13 -6 26 6 10 9 19 13 19 7
0 -8 8 -9 52 -4 4 1 5 8 1 17 -5 14 -2 14 28 -1 19 -10 48 -29 65 -41 17 -13
34 -24 38 -24 15 0 221 -163 221 -175 0 -8 4 -17 9 -22 5 -4 6 -3 2 5 -4 6 -2
12 3 12 6 0 11 -9 11 -20 0 -12 -6 -20 -12 -19 -7 1 -26 1 -43 0 -23 -1 -27
-3 -15 -11 13 -9 13 -10 0 -11 -8 -1 -19 -1 -23 0 -5 1 -6 -3 -2 -9 3 -6 11
-7 17 -4 15 9 30 -19 15 -29 -8 -5 -5 -7 7 -5 10 2 21 -3 24 -11 3 -9 0 -11
-8 -6 -9 5 -11 4 -6 -4 4 -6 13 -8 19 -4 7 4 6 -1 -2 -10 -8 -10 -11 -20 -7
-24 3 -3 6 -1 6 6 0 7 4 10 9 7 18 -11 19 23 1 39 -23 21 -33 56 -14 48 7 -3
16 -13 19 -24 4 -11 11 -16 17 -13 7 5 9 1 5 -9 -6 -17 7 -24 16 -9 2 4 2 1 1
-5 -2 -7 1 -13 6 -13 6 0 10 -7 10 -16 0 -11 6 -13 19 -9 11 3 22 1 26 -5 4
-6 1 -11 -6 -9 -27 3 -40 -1 -34 -11 4 -6 11 -7 17 -4 7 4 8 2 4 -5 -4 -6 -12
-8 -18 -5 -7 5 -9 1 -5 -9 7 -20 -23 -32 -37 -15 -6 7 -7 10 -2 6 12 -10 32
-11 23 -1 -4 3 -2 12 4 20 12 13 2 18 -30 13 -9 -1 -12 4 -7 16 5 14 4 15 -9
4 -8 -7 -12 -16 -9 -21 3 -5 2 -9 -1 -9 -3 0 -13 16 -21 35 -8 19 -20 35 -27
35 -8 0 -7 -4 3 -10 12 -8 12 -10 1 -10 -11 0 -11 -4 2 -18 11 -12 15 -31 13
-56 -1 -23 2 -40 10 -43 9 -3 9 -10 0 -28 -12 -27 -52 -44 -42 -19 3 9 1 12
-4 9 -17 -11 -31 5 -17 20 10 11 15 11 30 -2 23 -22 22 -11 -3 17 -11 13 -20
18 -20 12 0 -7 -4 -12 -10 -12 -5 0 -9 10 -7 23 1 15 -3 22 -15 22 -10 0 -22
5 -28 11 -21 21 39 9 63 -14 l24 -22 0 37 c0 20 -7 45 -16 55 -17 20 -31 23
-31 7 0 -5 5 -7 10 -4 6 3 10 -1 10 -9 0 -9 5 -16 10 -16 6 0 10 -4 10 -9 0
-18 -45 -6 -48 14 -5 31 -23 63 -40 70 -12 4 -11 0 3 -15 11 -12 20 -36 21
-53 2 -25 0 -28 -8 -13 -8 15 -12 16 -19 5 -6 -11 -12 -9 -29 6 -12 11 -21 15
-20 10 5 -22 -1 -26 -16 -10 -9 9 -19 13 -23 9 -3 -4 0 -9 7 -11 6 -3 12 -9
12 -14 0 -6 -8 -5 -20 1 -14 7 -20 7 -20 0 0 -5 -3 -9 -7 -9 -5 1 -12 0 -18
-1 -5 -1 -17 -3 -25 -4 -17 -1 -27 -36 -11 -36 6 0 8 7 5 15 -8 19 0 19 19 1
19 -20 63 -10 46 10 -15 18 1 18 27 -1 12 -8 24 -11 28 -7 4 3 4 -1 0 -11 -4
-13 -14 -16 -37 -11 -31 5 -31 5 -12 -16 10 -11 25 -18 32 -16 7 3 19 -5 28
-17 8 -12 15 -17 15 -13 0 5 -7 18 -17 28 -9 10 -11 18 -5 18 6 0 14 -4 17
-10 3 -5 11 -10 16 -10 6 0 3 7 -5 16 -30 29 -16 28 16 -2 22 -21 29 -24 25
-11 -5 12 -3 17 5 15 24 -8 18 -26 -12 -36 -16 -6 -30 -16 -30 -22 0 -6 -4 -8
-10 -5 -18 11 -11 -14 10 -35 32 -32 23 -37 -10 -5 -16 15 -27 32 -24 37 10
15 -7 28 -24 19 -20 -10 -42 -4 -42 11 0 6 7 8 15 4 21 -8 19 -3 -12 25 -15
13 -21 16 -13 6 10 -14 11 -20 2 -26 -9 -5 -5 -14 13 -31 16 -15 23 -30 19
-42 -3 -10 0 -18 6 -18 6 0 9 4 6 9 -4 5 0 12 6 15 10 5 10 7 1 12 -7 3 -13
11 -13 17 0 6 19 -7 43 -30 38 -37 77 -53 77 -31 0 4 -3 8 -7 8 -5 0 -14 12
-21 28 l-12 27 25 -27 c30 -32 31 -33 38 -14 4 11 1 13 -11 10 -13 -5 -14 -4
-3 4 17 12 4 35 -15 28 -15 -6 -20 9 -5 18 4 3 18 -5 31 -19 13 -14 28 -21 38
-18 11 5 13 3 7 -6 -6 -10 -3 -11 13 -2 27 14 35 28 22 36 -8 5 -8 11 0 20 7
8 9 19 5 25 -3 6 -9 23 -11 38 l-5 27 28 -26 c20 -20 33 -25 48 -19 11 4 28 3
38 -2 9 -5 17 -6 17 -2 0 3 7 1 15 -6 11 -9 15 -9 15 -1 0 7 5 9 12 5 8 -5 9
-2 4 11 -7 18 -6 18 14 0 18 -16 20 -17 14 -2 -3 10 -1 17 6 17 6 0 8 5 5 10
-10 17 7 11 22 -7 8 -10 11 -12 7 -4 -5 11 -3 13 9 8 23 -9 21 -4 -13 33 -48
51 -35 46 31 -12 33 -29 69 -59 80 -67 10 -7 19 -17 19 -22 0 -4 23 -30 51
-56 54 -50 214 -233 204 -233 -3 0 8 -14 25 -30 17 -17 28 -35 24 -42 -4 -6
-3 -8 3 -5 16 10 230 -285 247 -339 7 -22 9 -22 -264 -84 -94 -22 -240 -62
-271 -75 -22 -8 -115 125 -96 137 8 5 5 8 -9 8 -18 0 -46 31 -99 108 -5 8 -32
36 -58 63 -30 29 -46 53 -41 60 4 7 3 9 -3 6 -13 -8 -65 42 -57 54 3 5 0 8 -8
7 -7 -2 -12 3 -10 10 1 8 -1 11 -6 8 -5 -3 -51 34 -102 83 -59 56 -89 91 -81
95 6 4 8 13 4 19 -3 7 4 3 17 -8 13 -11 20 -14 14 -5 -5 8 -9 20 -9 25 -1 6
-7 9 -15 7 -11 -3 -11 0 1 14 13 16 12 17 -13 12 -15 -3 -25 -1 -22 3 2 5 -4
17 -16 29 -11 11 -16 20 -12 20 4 0 13 -5 19 -11 7 -7 15 -6 27 6 9 9 21 13
28 9 9 -6 9 -3 0 9 -12 14 -16 15 -28 2 -15 -14 -43 -11 -45 6 -1 5 -3 14 -4
19 -1 6 -3 15 -4 20 0 6 -6 10 -12 10 -5 0 -7 -5 -4 -11 4 -6 -2 -5 -14 3 -12
7 -19 18 -17 25 3 7 -1 10 -9 6 -8 -3 -12 -10 -9 -15 4 -6 -4 -5 -16 2 -13 7
-20 8 -16 2 3 -6 2 -13 -3 -16 -10 -7 -23 19 -14 28 4 3 15 6 26 6 19 0 19 1
3 19 -18 19 -46 18 -46 -1 0 -6 8 -4 18 3 15 13 16 12 3 -3 -12 -16 -16 -16
-42 -2 -27 14 -29 13 -26 -5 2 -11 6 -23 9 -27 4 -3 4 -12 1 -19 -3 -10 -17
-5 -51 19 -87 61 -343 218 -397 242 -41 19 -53 29 -49 42 5 14 4 15 -5 2 -18
-25 -23 -3 -6 24 16 25 16 26 0 26 -10 0 -15 5 -12 13 2 6 -3 19 -11 27 -14
13 -15 12 -10 -1 5 -12 1 -15 -19 -11 -18 3 -21 7 -11 13 7 5 10 9 6 9 -3 0
-14 3 -22 6 -12 5 -15 2 -10 -10 3 -9 1 -16 -4 -16 -15 0 -24 18 -13 25 6 3 8
13 5 23 -5 14 -4 15 5 2 5 -8 13 -11 18 -7 4 5 1 12 -7 17 -9 6 -19 5 -24 0
-14 -14 -29 -12 -23 3 3 7 -3 13 -14 13 -12 0 -15 -4 -9 -11 6 -7 2 -11 -10
-12 -10 -1 -20 5 -22 13 -3 12 -7 12 -30 0 -22 -12 -27 -12 -32 -1 -2 7 -13
12 -23 10 -10 -2 -23 -4 -30 -4 -6 -1 -13 -7 -15 -15 -2 -11 -37 -3 -158 35
-85 27 -184 56 -220 65 -163 39 -383 81 -402 76 -5 -1 -8 3 -8 8 0 6 6 11 13
11 6 1 19 2 27 3 8 0 31 -3 50 -7 19 -5 43 -8 53 -8 9 0 15 -4 12 -9 -3 -4 9
-3 25 3 17 7 26 13 20 15 -14 5 -12 28 4 41 11 9 17 8 28 -7 13 -18 38 -37 38
-29 0 2 -13 17 -29 34 -27 29 -29 29 -40 11 -7 -11 -19 -17 -27 -14 -8 3 -14
-1 -14 -10 0 -9 -5 -12 -12 -8 -6 4 -8 3 -4 -4 4 -7 -1 -10 -14 -9 -11 1 -20
4 -20 7 0 3 -9 6 -20 7 -11 1 -27 9 -36 17 -20 20 -28 20 -20 1 3 -8 1 -15 -4
-15 -6 0 -10 7 -10 15 0 8 -6 12 -14 9 -8 -3 -17 -1 -21 5 -12 21 -26 12 -15
-9 10 -20 10 -20 -12 -8 -30 17 -48 35 -48 46 0 5 -7 9 -15 9 -11 0 -12 -4 -4
-14 6 -7 8 -13 3 -13 -5 0 -2 -5 6 -10 13 -8 12 -10 -2 -10 -10 0 -18 7 -18
16 0 8 -4 13 -10 9 -5 -3 -7 -12 -4 -20 4 -9 -1 -13 -15 -12 -12 1 -24 9 -27
19 -6 19 -24 25 -24 8 0 -5 4 -10 10 -10 5 0 7 -7 4 -15 -4 -8 -2 -15 2 -16
131 -13 167 -18 173 -25 3 -4 -25 -4 -64 0 -38 3 -83 6 -98 6 -16 0 -26 4 -23
9 3 5 -1 14 -8 20 -11 9 -16 9 -23 -2 -6 -11 -53 -16 -218 -21 -115 -3 -221
-8 -235 -10 -14 -2 -59 -7 -100 -11 -41 -4 -147 -20 -235 -36 -88 -17 -175
-33 -192 -36 -20 -3 -33 -1 -33 5 0 5 9 8 20 5 11 -3 20 0 20 6 0 6 -4 11 -10
11 -5 0 -19 9 -31 21 -14 14 -24 18 -31 11 -16 -16 1 -36 18 -21 15 13 19 2 5
-19 -6 -11 -14 -8 -35 13 -19 19 -34 26 -52 22 -13 -2 -24 0 -24 5 0 5 -5 6
-11 2 -8 -5 -8 -9 1 -14 18 -11 21 -57 4 -57 -10 0 -11 4 -4 11 5 5 10 14 10
20 0 5 -3 7 -6 3 -4 -3 -14 2 -23 13 -14 16 -18 17 -28 5 -8 -9 -9 -16 -3 -20
6 -3 10 0 10 7 0 8 5 5 11 -5 8 -14 8 -22 -1 -30 -10 -9 -11 -9 -7 -1 7 13
-19 27 -33 19 -5 -3 -6 -13 -3 -23 6 -15 5 -15 -11 -3 -9 8 -13 17 -9 20 16
12 15 51 -1 51 -9 0 -13 -6 -10 -14 6 -16 -24 -36 -43 -29 -7 3 -13 11 -13 19
0 9 -4 13 -10 9 -5 -3 -6 -13 -3 -22 4 -11 3 -14 -5 -9 -7 4 -12 2 -12 -3 0
-6 -8 -11 -17 -12 -11 0 -13 -3 -5 -6 6 -2 12 -9 12 -15 0 -6 -7 -7 -16 -4 -8
3 -12 2 -9 -4 3 -6 1 -10 -6 -10 -20 0 0 -14 22 -15 12 -1 18 3 15 11 -2 6 2
20 10 31 14 17 15 16 9 -7 -3 -14 -11 -35 -17 -47 -9 -19 -13 -20 -25 -7 -8 8
-20 11 -26 7 -8 -5 -6 -9 6 -11 9 -2 17 -7 17 -12 0 -5 10 -10 23 -12 16 -3 7
-8 -33 -22 -65 -22 -257 -105 -352 -152 -47 -24 -68 -30 -71 -21 -3 7 -6 4 -6
-6 -1 -10 -5 -16 -10 -13 -5 4 -28 7 -51 8 -22 1 -43 5 -46 10 -3 5 8 6 25 3
17 -3 31 -1 31 4 0 5 -12 11 -27 13 -22 2 -27 8 -25 23 2 15 1 17 -7 6 -5 -8
-16 -11 -26 -8 -9 4 -14 3 -10 -3 3 -6 13 -10 21 -10 8 0 12 -5 9 -10 -9 -14
-45 7 -45 25 0 8 -5 15 -11 15 -6 0 -8 -9 -3 -22 6 -22 6 -22 -14 2 -12 14
-21 19 -22 13 0 -7 5 -13 10 -13 6 0 10 -4 10 -8 0 -7 -22 -8 -50 -3 -3 1 2 6
10 11 13 8 12 10 -2 10 -10 0 -18 -7 -18 -16 0 -14 -3 -14 -16 -3 -13 10 -17
10 -25 -2 -5 -9 -9 -10 -9 -2 0 8 -13 11 -37 8 -21 -1 -45 -3 -53 -4 -13 -1
-13 -2 0 -11 8 -5 11 -10 7 -10 -9 0 31 -45 41 -45 28 -1 68 -28 69 -48 0 -12
-1 -17 -4 -10 -3 8 -13 9 -36 2 -19 -5 -35 -5 -41 1 -6 6 -15 5 -24 -3 -12 -9
-16 -9 -19 1 -3 6 -12 12 -21 12 -13 0 -12 -3 4 -15 12 -9 14 -14 6 -15 -7 0
-10 -5 -7 -10 4 -6 11 -7 17 -4 7 5 9 1 5 -9 -3 -10 -2 -17 4 -17 6 0 9 9 7
20 -2 10 2 18 7 17 6 -1 9 -5 7 -9 -1 -5 3 -8 9 -8 5 0 -1 -10 -15 -23 -24
-22 -24 -23 -6 -35 16 -10 18 -9 14 3 -4 8 -1 15 5 15 10 0 15 -13 12 -32 0
-4 11 -3 25 2 14 6 28 10 31 10 3 0 -37 -32 -89 -72 -145 -112 -178 -140 -321
-266 -33 -29 -62 -50 -65 -48 -6 6 19 31 38 39 12 4 11 6 -2 6 -21 1 -24 17
-5 24 7 3 5 6 -5 6 -10 1 -18 -3 -18 -9 0 -5 -5 -10 -12 -10 -6 0 -9 3 -5 6 9
9 -16 32 -30 27 -21 -8 -28 28 -10 42 14 10 15 14 4 23 -8 7 -18 7 -27 2 -10
-7 -11 -10 -2 -10 22 0 13 -19 -13 -26 -14 -3 -23 -10 -20 -14 5 -8 -53 -76
-59 -69 -15 17 -23 47 -16 58 11 18 31 4 23 -16 -4 -11 -3 -14 6 -9 7 5 10 15
7 23 -4 11 -2 13 9 9 8 -3 15 -1 15 4 0 14 -18 21 -25 10 -5 -8 -11 -8 -20 0
-15 13 -30 -11 -34 -57 0 -7 -7 -13 -14 -13 -8 0 -14 -6 -14 -14 0 -8 6 -12
13 -9 7 2 21 -4 31 -14 10 -10 26 -17 36 -15 9 2 17 -2 17 -8 0 -6 -4 -9 -9
-5 -5 3 -12 1 -16 -5 -3 -5 1 -10 9 -10 20 0 50 -30 54 -54 4 -21 -26 -58 -40
-50 -4 3 -7 2 -6 -3 4 -14 -34 -63 -45 -56 -5 3 -8 2 -4 -3 3 -5 -6 -23 -20
-39 -13 -17 -47 -58 -75 -92 -27 -35 -55 -63 -61 -63 -7 0 -5 5 3 10 8 5 11
10 5 10 -5 0 -3 5 5 10 9 6 11 10 3 10 -7 0 -10 7 -7 15 4 8 2 15 -4 15 -6 0
-13 -6 -15 -12 -3 -7 -6 -3 -6 9 -1 16 3 21 14 17 8 -4 15 -1 15 5 0 6 6 10
13 9 6 -2 11 5 11 14 -1 10 2 15 7 12 5 -3 9 -12 9 -20 0 -31 49 34 53 70 4
32 2 36 -19 36 -13 0 -23 -5 -22 -12 2 -6 -7 -17 -19 -23 -13 -7 -20 -14 -17
-17 3 -3 0 -9 -7 -14 -7 -4 -10 -3 -5 4 3 6 1 14 -5 17 -5 4 -8 14 -4 22 5 13
3 14 -10 3 -10 -8 -12 -16 -6 -19 8 -5 9 -26 2 -48 -1 -2 -1 -6 -2 -10 0 -5
-7 -12 -14 -16 -10 -5 -12 -14 -5 -31 5 -13 6 -27 2 -32 -4 -4 -1 -4 6 0 6 4
12 2 12 -3 0 -6 -9 -11 -19 -11 -11 0 -22 -4 -25 -9 -4 -5 3 -7 14 -4 12 3 20
0 20 -6 0 -7 -4 -9 -10 -6 -5 3 -10 1 -10 -5 0 -7 8 -9 21 -5 26 9 29 13 -73
-131 -43 -62 -78 -117 -78 -123 0 -6 -3 -11 -7 -11 -11 0 -35 -43 -124 -215
-42 -82 -83 -151 -90 -154 -10 -3 -9 2 3 15 22 26 29 82 8 69 -5 -3 -10 -4
-10 -1 0 2 -3 13 -6 23 -5 15 -4 15 5 3 9 -13 11 -13 11 3 0 9 -4 17 -10 17
-9 0 -35 -41 -31 -50 1 -2 -2 -6 -7 -8 -16 -5 -42 27 -36 46 4 12 3 13 -3 4
-7 -10 -14 -8 -28 8 -17 19 -12 26 17 21 4 0 5 6 2 14 -9 22 -41 20 -36 -2 2
-7 -2 -13 -8 -13 -5 0 -10 3 -10 8 -1 11 -50 44 -50 33 0 -6 16 -21 35 -33 19
-13 34 -27 34 -33 -3 -26 2 -45 11 -45 7 0 7 6 0 20 -13 24 -5 26 16 5 9 -8
13 -15 9 -15 -3 0 0 -6 7 -14 7 -8 16 -12 21 -9 4 2 7 -1 7 -6 0 -6 -5 -11
-11 -11 -5 0 -7 -5 -4 -10 4 -6 11 -8 16 -5 5 4 9 -2 9 -11 0 -16 -1 -16 -19
0 -16 15 -19 15 -24 1 -4 -8 -1 -15 6 -15 8 0 8 -3 -2 -9 -8 -5 -10 -14 -6
-21 5 -8 3 -11 -6 -8 -21 7 -19 51 3 66 15 11 16 17 7 28 -6 7 -15 12 -19 9
-12 -8 -41 6 -34 16 3 5 1 9 -4 9 -23 0 -20 -28 4 -34 13 -4 24 -13 24 -22 0
-14 -2 -14 -16 0 -19 20 -25 20 -18 1 4 -8 10 -15 14 -15 4 0 11 -7 14 -16 4
-11 2 -15 -8 -11 -11 4 -13 1 -9 -10 5 -13 2 -15 -12 -9 -17 6 -18 5 -3 -11
28 -33 29 -40 3 -37 -14 1 -23 -2 -19 -7 3 -5 9 -7 13 -4 5 2 8 -13 8 -35 0
-25 -4 -40 -12 -40 -17 0 -27 -28 -13 -36 6 -4 8 -3 4 4 -3 6 -2 13 3 16 5 3
11 -1 15 -9 3 -8 11 -15 18 -15 9 0 9 3 0 12 -16 16 -15 25 3 25 8 0 12 -4 9
-8 -2 -4 0 -10 6 -14 5 -3 10 2 11 12 0 11 3 13 6 5 3 -7 -1 -19 -7 -27 -10
-12 -9 -15 5 -15 10 0 16 3 12 6 -3 4 1 20 9 36 8 16 12 34 8 40 -4 6 -3 8 3
5 6 -4 14 0 17 9 4 9 8 15 11 12 2 -2 -18 -59 -45 -126 -27 -67 -57 -147 -66
-179 -34 -118 -61 -192 -69 -185 -5 4 -5 -1 -2 -11 9 -25 -22 -154 -37 -154
-10 0 -10 5 0 26 17 36 26 128 14 136 -6 3 -10 12 -10 18 0 7 4 6 10 -3 6 -9
10 -10 10 -3 0 6 -5 15 -11 18 -6 4 -8 13 -5 21 3 7 0 16 -6 20 -6 4 -8 3 -5
-3 4 -6 -1 -17 -10 -24 -15 -12 -16 -12 -10 4 5 13 3 17 -5 14 -7 -2 -12 -8
-11 -13 1 -5 -16 -9 -38 -10 -22 0 -35 2 -29 6 7 4 5 12 -6 21 -15 12 -17 12
-9 0 6 -11 4 -13 -8 -8 -10 3 -17 2 -17 -3 0 -6 -6 -10 -13 -10 -20 0 -35 40
-32 83 2 20 -1 37 -6 37 -5 0 -8 -6 -6 -12 1 -7 -3 -12 -10 -11 -6 1 -16 -4
-23 -12 -8 -10 -17 -12 -29 -5 -23 12 -25 -20 -2 -38 32 -25 51 -34 49 -21 -2
6 3 14 11 17 8 3 11 0 7 -7 -4 -6 -2 -11 3 -11 6 0 11 -3 11 -8 0 -4 -18 -7
-39 -7 -22 0 -38 2 -36 5 1 3 -3 10 -10 17 -10 9 -12 5 -11 -18 1 -17 8 -34
16 -39 22 -14 30 -12 24 8 -5 13 -4 14 4 3 5 -7 16 -18 23 -23 11 -7 10 -8 -3
-6 -9 2 -17 -1 -17 -7 -1 -5 4 -10 9 -10 6 0 10 -4 11 -10 2 -21 20 -45 30
-39 5 3 17 0 25 -7 21 -18 54 -19 54 -2 0 8 -5 11 -12 7 -7 -5 -8 -3 -3 6 6
10 11 9 22 -6 8 -10 18 -18 23 -17 5 2 7 -4 4 -12 -3 -8 -9 -14 -12 -13 -23 2
-29 -6 -28 -37 1 -23 5 -34 13 -31 7 3 11 -3 10 -15 -1 -10 -5 -19 -9 -19 -4
0 -8 -4 -8 -9 0 -5 9 -7 20 -4 14 4 17 9 11 17 -6 7 -4 16 4 23 11 10 14 9 14
-5 1 -40 5 -51 14 -45 7 4 8 -1 3 -13 -4 -12 -4 -15 2 -9 5 6 15 28 22 50 19
59 23 28 5 -40 -35 -135 -15 -157 222 -244 61 -23 117 -41 125 -41 8 0 18 -3
22 -8 4 -4 12 -8 17 -8 5 -1 13 -2 17 -3 6 -1 -44 -166 -75 -241 -9 -24 -37
-101 -143 -395 -28 -77 -55 -149 -60 -160 -6 -11 -21 -54 -35 -95 -56 -167
-97 -261 -111 -256 -8 3 -14 1 -14 -3 0 -5 5 -11 12 -13 13 -5 -20 -108 -34
-108 -11 0 -10 5 5 43 12 29 13 39 8 65 -1 4 -6 0 -11 -8 -7 -12 -9 -9 -7 10
1 14 -2 25 -8 25 -5 0 -9 -6 -9 -12 1 -7 -2 -13 -7 -13 -5 0 -9 -6 -9 -14 0
-23 -22 -31 -35 -13 -7 10 -16 13 -25 7 -11 -7 -11 -11 -1 -24 7 -9 18 -13 24
-9 6 3 7 1 3 -6 -4 -6 -12 -8 -18 -5 -6 4 -14 0 -19 -7 -8 -12 -10 -12 -18 0
-6 9 -11 10 -15 2 -4 -6 -12 -8 -18 -5 -7 4 -8 2 -4 -4 4 -6 14 -8 23 -5 27
11 5 -15 -28 -32 -16 -9 -27 -20 -24 -25 4 -6 1 -10 -4 -10 -16 0 -13 14 8 37
19 20 19 20 -14 19 -28 -1 -32 -4 -24 -18 7 -14 6 -16 -6 -12 -8 4 -15 10 -15
15 0 5 -7 9 -16 9 -8 0 -12 -4 -9 -10 3 -5 1 -10 -5 -10 -7 0 -10 6 -7 13 21
51 21 51 1 43 -10 -5 -27 -11 -36 -13 -21 -6 -23 -19 -6 -29 7 -4 8 -3 4 4 -4
7 -1 12 8 12 16 0 23 -19 9 -21 -5 0 -16 -2 -25 -4 -10 -2 -18 1 -18 6 0 4 -8
6 -17 2 -15 -5 -14 -2 4 18 l22 24 -26 2 c-19 1 -22 -1 -12 -8 12 -8 11 -11
-2 -22 -14 -10 -14 -14 -3 -25 7 -6 18 -12 23 -12 14 0 121 -48 121 -54 0 -5
-43 7 -85 24 -16 7 -39 15 -50 17 -11 2 -24 8 -29 13 -8 8 -48 163 -61 240 -3
19 -12 67 -20 105 -47 229 -69 566 -54 845 7 131 9 158 30 340 12 104 43 274
65 355 8 33 25 99 37 148 11 48 23 87 27 87 3 0 5 -15 5 -34 0 -19 -3 -32 -7
-30 -3 2 -12 -22 -18 -53 -6 -32 -15 -68 -20 -81 -13 -30 -13 -52 0 -32 7 11
10 11 10 2 0 -7 4 -11 9 -8 14 9 21 -20 8 -34 -9 -10 -8 -12 6 -7 9 4 17 2 17
-3 0 -5 7 -6 17 -3 10 4 14 2 10 -4 -3 -5 0 -10 8 -10 8 0 12 4 10 8 -8 13 22
18 35 6 10 -10 12 -8 6 7 -3 10 -2 24 3 30 11 13 -4 56 -19 56 -6 0 -9 4 -6 9
6 8 48 7 63 -2 11 -7 11 39 0 49 -4 5 -12 3 -16 -5 -6 -10 -10 -9 -14 4 -4 9
-3 14 1 12 12 -6 40 30 32 42 -9 16 -70 23 -70 9 0 -9 -3 -9 -11 -1 -17 17 -6
56 19 69 16 8 20 14 12 19 -7 4 -16 1 -21 -6 -8 -11 -12 -10 -24 5 -15 20 -15
20 -16 0 0 -17 -1 -16 -9 4 -6 13 -6 31 1 45 l10 22 -5 -22 c-2 -13 0 -23 4
-23 13 0 18 24 9 42 -6 12 6 59 40 155 51 142 141 356 148 350 2 -2 -5 -24
-15 -48 -21 -48 -38 -121 -25 -103 4 6 16 14 27 17 15 6 17 4 13 -14 -4 -15
-2 -19 9 -15 8 3 14 -1 14 -11 0 -12 3 -13 15 -3 8 7 23 9 32 5 10 -3 19 -6
21 -5 2 1 13 -10 26 -24 12 -14 25 -26 30 -26 5 0 3 7 -4 15 -7 8 -9 15 -5 15
13 0 45 -32 45 -44 0 -6 -4 -5 -9 3 -5 7 -11 9 -13 5 -3 -5 3 -18 14 -29 16
-17 18 -17 13 -2 -9 22 9 22 31 0 16 -16 17 -16 12 -1 -9 23 3 31 18 10 9 -11
13 -13 14 -4 0 7 3 11 8 9 4 -3 7 5 7 18 0 13 -3 21 -7 19 -3 -2 -13 3 -21 11
-26 25 -32 17 -7 -10 39 -42 16 -38 -30 5 -45 41 -65 54 -37 22 10 -10 14 -22
11 -25 -10 -10 -46 35 -40 49 2 6 -5 22 -16 34 -26 28 -18 36 12 10 32 -28 35
-25 8 9 -16 21 -29 28 -42 24 -16 -5 -17 -3 -5 10 15 16 29 9 71 -36 9 -10 19
-14 22 -9 3 6 0 12 -8 15 -7 3 -23 19 -35 36 -17 23 -18 29 -7 25 11 -4 16 0
16 12 0 15 3 15 25 -6 14 -13 25 -19 25 -13 0 6 -7 14 -16 17 -8 3 -14 14 -13
23 3 31 -1 43 -12 43 -6 0 -9 -7 -6 -15 9 -23 -13 -29 -29 -9 -15 18 -15 18
-10 1 4 -11 2 -16 -5 -12 -6 4 -8 14 -5 22 4 11 2 13 -9 9 -8 -3 -14 -2 -14 2
6 37 -22 47 -55 21 -22 -17 -19 -7 25 82 27 56 52 99 55 97 5 -6 -16 -60 -27
-68 -6 -4 -39 -77 -39 -86 0 -2 6 -1 13 2 7 2 23 -7 35 -21 13 -14 28 -23 34
-19 6 4 8 3 4 -4 -3 -6 -2 -13 3 -16 14 -9 21 21 7 33 -7 6 -15 8 -18 5 -3 -3
-9 0 -14 7 -4 8 -3 10 4 5 7 -4 12 -2 12 6 0 7 7 2 16 -10 8 -12 20 -22 26
-22 6 0 5 7 -3 17 -13 15 -12 15 8 5 17 -9 23 -9 29 0 4 7 4 10 -1 6 -4 -4
-14 -1 -21 7 -19 19 -18 26 4 18 9 -3 2 8 -17 26 -25 22 -37 28 -42 19 -5 -8
-7 -4 -6 10 1 15 6 21 15 17 10 -4 13 0 9 15 -3 11 -1 23 4 26 5 3 8 0 7 -8
-2 -7 4 -12 12 -10 8 2 22 4 31 5 9 1 15 7 12 14 -5 12 9 18 31 14 18 -4 -18
31 -41 40 -26 10 -31 29 -8 29 8 0 15 4 15 9 0 14 -28 21 -33 8 -2 -8 -5 -8
-10 0 -9 14 98 191 195 325 92 125 102 135 121 117 12 -11 11 -16 -7 -31 -19
-16 -19 -19 -5 -28 10 -6 15 -20 14 -35 -3 -25 8 -34 20 -15 3 6 1 10 -6 10
-8 0 -8 4 1 15 9 11 16 12 25 5 8 -7 12 -5 12 6 0 11 -7 14 -25 9 -15 -4 -21
-2 -17 5 3 5 1 10 -5 10 -6 0 -8 5 -5 10 5 8 11 8 20 0 9 -8 11 -5 7 15 -2 14
-9 25 -14 25 -5 0 -3 7 6 15 18 18 33 19 39 3 4 -10 6 -10 6 0 1 19 -24 25
-49 12 -12 -6 -24 -9 -27 -6 -9 8 18 37 28 30 5 -3 8 -1 7 4 -2 5 17 33 42 63
41 49 63 74 173 192 20 22 37 37 37 33 0 -4 -6 -13 -12 -20 -51 -52 -88 -97
-88 -105 0 -5 -9 -12 -19 -16 -11 -3 -24 -19 -30 -36 -6 -18 -6 -27 -1 -24 6
4 10 1 10 -4 0 -6 -4 -11 -10 -11 -5 0 -10 -4 -10 -10 0 -5 7 -6 17 -3 12 5
14 3 8 -8 -8 -12 -6 -12 8 -1 15 13 15 16 0 38 -17 27 -10 32 14 9 8 -8 19
-12 25 -9 6 4 14 0 19 -7 5 -9 9 -10 9 -2 0 6 11 10 25 8 29 -3 30 -1 9 20 -9
9 -13 19 -9 23 3 4 11 -1 17 -11 9 -18 11 -18 30 0 11 10 24 26 29 35 8 15 5
17 -20 14 -17 -2 -28 1 -25 6 3 5 12 7 20 4 8 -3 14 -2 14 3 0 4 7 8 14 8 8 0
14 -5 13 -11 -2 -12 1 -12 52 -1 23 5 31 4 27 -4 -4 -6 -2 -11 3 -11 17 0 13
18 -5 28 -11 6 -13 11 -5 16 6 4 11 2 11 -3 0 -6 7 -11 16 -11 8 0 13 -4 10
-9 -3 -4 6 -13 21 -20 24 -11 24 -13 9 -30 -10 -11 -26 -16 -44 -13 -18 2 -33
-2 -41 -12 -9 -11 -10 -16 -2 -16 6 0 11 5 11 10 0 14 37 12 43 -2 3 -9 11 -6
26 10 17 17 24 20 35 10 11 -10 11 -15 -1 -26 -7 -8 -20 -11 -28 -8 -8 3 -15
1 -15 -5 0 -6 -7 -9 -15 -5 -8 3 -15 1 -15 -4 0 -6 4 -10 9 -10 5 0 16 -2 23
-5 8 -3 24 4 36 15 12 11 27 19 34 18 18 -4 16 44 -2 49 -13 4 -13 3 0 -6 9
-7 10 -11 3 -11 -6 0 -21 14 -33 30 -12 17 -25 28 -29 25 -13 -7 -34 42 -25
57 6 11 5 11 -8 0 -9 -7 -22 -11 -29 -10 -7 2 -18 -7 -24 -19 -5 -13 -13 -23
-17 -23 -11 0 -10 14 2 26 16 16 30 74 19 74 -6 0 -8 4 -4 10 3 5 12 7 20 3
18 -6 16 22 -4 52 -10 16 -11 17 -7 2 3 -10 2 -15 -3 -12 -5 3 -13 0 -17 -6
-5 -9 0 -10 17 -6 l24 6 -24 -17 c-25 -17 -64 -24 -55 -10 4 5 12 7 20 4 17
-7 18 6 2 22 -8 8 -16 6 -30 -10 -10 -12 -18 -16 -18 -9 0 17 181 192 256 247
41 30 79 61 97 80 12 11 57 -4 57 -19 0 -5 4 -6 9 -3 5 3 11 -4 14 -15 4 -15
11 -20 22 -15 11 4 18 0 22 -12 3 -13 14 -18 39 -18 33 0 34 1 12 13 -15 8
-18 13 -8 13 12 0 11 3 -3 11 -10 6 -21 8 -24 5 -4 -3 -1 -6 5 -6 6 0 9 -7 6
-15 -6 -14 -8 -13 -19 2 -8 10 -18 19 -24 19 -22 3 -23 4 -11 19 10 13 15 13
21 3 4 -7 11 -9 15 -5 4 4 2 13 -4 19 -15 15 -16 28 -2 28 6 0 10 -7 10 -15 0
-20 36 -39 46 -23 4 7 3 8 -4 4 -7 -4 -12 -3 -12 3 0 5 -2 15 -5 23 -2 7 7 27
21 43 21 25 24 26 14 6 -11 -22 -11 -23 6 -16 11 4 26 8 34 8 17 0 60 27 44
27 -5 0 -15 -5 -21 -11 -8 -8 -16 -8 -30 1 -15 10 -16 11 -1 6 24 -7 56 49 33
58 -8 3 -17 1 -21 -5 -3 -6 -12 -8 -19 -5 -7 2 -22 -2 -34 -10 -19 -14 -21
-13 -21 1 0 9 5 13 10 10 6 -3 10 -2 10 4 0 10 38 27 53 23 4 -1 7 4 7 10 0
19 251 175 310 193 14 4 27 10 30 14 7 9 47 30 77 42 21 8 24 7 19 -6 -6 -17
19 -21 29 -5 4 6 15 8 25 5 12 -4 22 0 28 11 5 9 15 14 21 10 6 -4 9 -12 6
-17 -4 -5 4 -5 19 0 18 7 26 6 30 -4 2 -8 1 -15 -4 -17 -4 -2 2 -11 15 -20 19
-15 23 -15 21 -3 -1 9 -8 21 -14 27 -13 13 -16 29 -4 27 19 -3 23 2 12 16 -15
18 -31 20 -24 2 3 -8 -3 -13 -16 -13 -20 0 -20 1 -1 19 10 11 30 21 43 23 42
6 57 10 64 16 3 4 12 4 20 1 8 -3 14 0 14 6 0 9 5 9 20 1 20 -11 30 3 10 15
-5 3 -6 13 -3 23 5 14 3 15 -8 5 -16 -16 -58 -18 -43 -3 12 12 122 59 214 92
59 21 377 108 395 108 5 0 3 -4 -5 -10 -20 -13 33 -32 74 -27 17 2 38 0 47 -4
25 -12 58 0 52 19 -3 13 -1 12 12 -3 16 -20 16 -20 36 4 11 13 23 20 27 16 4
-4 1 -10 -5 -12 -7 -3 -13 -11 -13 -19 0 -9 5 -12 10 -9 6 3 10 2 10 -4 0 -5
-5 -11 -12 -13 -6 -2 -8 -10 -4 -16 14 -22 23 -12 20 22 -2 34 18 57 31 36 4
-6 1 -10 -5 -10 -6 0 -8 -5 -4 -12 8 -12 34 16 34 36 0 6 -4 4 -10 -4 -8 -12
-10 -12 -16 3 -3 9 -10 15 -14 12 -5 -3 -16 2 -24 11 -9 9 -16 11 -16 4 0 -6
-6 -17 -13 -25 -12 -11 -16 -10 -28 6 -14 20 -35 27 -24 8 4 -6 -2 -5 -14 3
-19 11 -19 13 -3 19 28 10 208 39 342 54 124 14 704 15 810 1z m-1195 -71
c-34 -13 -87 -23 -79 -16 5 5 18 11 29 14 23 6 65 7 50 2z m1944 -79 c19 -7
37 -18 39 -24 3 -9 -8 -7 -31 4 -33 16 -37 16 -52 0 -9 -9 -19 -16 -23 -16 -3
0 -1 5 6 12 17 17 15 31 -3 24 -8 -3 -15 -1 -15 4 0 13 37 11 79 -4z m61 -56
c0 -5 -4 -10 -10 -10 -5 0 -10 5 -10 10 0 6 5 10 10 10 6 0 10 -4 10 -10z
m-2740 -88 c0 -5 -11 -14 -25 -20 -14 -6 -25 -8 -25 -4 0 6 9 12 48 31 1 0 2
-3 2 -7z m-85 -50 c-18 -17 -55 -25 -55 -11 0 8 41 27 59 28 11 1 9 -4 -4 -17z
m-65 -21 c0 -5 -8 -11 -17 -14 -10 -2 -27 -8 -38 -12 -11 -4 -6 2 10 13 34 23
45 26 45 13z m1877 -163 c-3 -8 -6 -5 -6 6 -1 11 2 17 5 13 3 -3 4 -12 1 -19z
m393 -8 c0 -5 -4 -10 -10 -10 -5 0 -10 5 -10 10 0 6 5 10 10 10 6 0 10 -4 10
-10z m-1495 -60 c3 -5 2 -10 -4 -10 -5 0 -13 5 -16 10 -3 6 -2 10 4 10 5 0 13
-4 16 -10z m2913 -15 c-3 -3 -9 2 -12 12 -6 14 -5 15 5 6 7 -7 10 -15 7 -18z
m67 15 c3 -6 -1 -7 -9 -4 -18 7 -21 14 -7 14 6 0 13 -4 16 -10z m-2915 -34 c0
-2 -7 -6 -15 -10 -8 -3 -15 -1 -15 4 0 6 7 10 15 10 8 0 15 -2 15 -4z m-255
-16 c3 -5 1 -10 -4 -10 -6 0 -11 5 -11 10 0 6 2 10 4 10 3 0 8 -4 11 -10z
m186 -6 c-26 -12 -36 -13 -45 -3 -8 9 -7 11 4 7 8 -3 24 -2 35 3 36 14 41 8 6
-7z m-66 -24 c-27 -12 -43 -12 -25 0 8 5 22 9 30 9 10 0 8 -3 -5 -9z m-46 -14
c-2 -2 -15 -7 -29 -10 l-25 -7 25 15 c21 12 42 14 29 2z m-75 -27 c-27 -11
-34 -10 -34 2 0 5 5 7 10 4 6 -3 10 -2 10 4 0 6 8 7 17 4 15 -6 15 -7 -3 -14z
m-1194 2 c0 -5 -7 -12 -16 -15 -14 -5 -15 -4 -4 9 14 17 20 19 20 6z m2490 -1
c299 -22 544 -69 780 -147 234 -78 343 -123 515 -212 296 -153 501 -303 773
-566 57 -55 138 -140 179 -190 42 -49 86 -102 99 -117 28 -33 170 -244 208
-310 15 -25 23 -49 18 -52 -5 -3 -85 -8 -178 -12 l-169 -6 -40 32 c-55 45
-260 181 -337 223 -108 60 -260 105 -483 142 -254 42 -399 81 -510 137 -156
79 -282 106 -355 76 -97 -41 -150 -128 -150 -246 0 -40 5 -82 11 -93 6 -11 9
-25 7 -31 -2 -6 -125 51 -272 127 -232 119 -273 136 -302 132 -19 -3 -247
-115 -507 -248 -260 -133 -582 -298 -717 -367 -504 -257 -548 -283 -581 -335
-18 -30 -19 -56 -19 -528 0 -273 -3 -498 -6 -501 -3 -3 -21 -1 -40 5 -76 23
-283 -21 -528 -113 -49 -19 -72 -22 -129 -17 -38 3 -79 12 -90 20 -12 8 -56
24 -97 36 -41 13 -81 28 -87 33 -17 14 -16 48 2 91 20 48 19 118 -2 161 -19
40 -83 76 -193 107 -36 10 -94 30 -130 43 -63 24 -65 25 -62 58 11 148 197
696 297 873 122 218 167 292 217 368 183 273 482 586 750 785 210 156 289 204
519 316 327 159 587 239 959 296 250 38 428 46 650 30z m-2530 -30 c0 -5 -5
-10 -11 -10 -5 0 -7 5 -4 10 3 6 8 10 11 10 2 0 4 -4 4 -10z m3565 -8 c-3 -3
-11 0 -18 7 -9 10 -8 11 6 5 10 -3 15 -9 12 -12z m65 -29 c0 -1 -11 2 -25 9
-13 6 -22 15 -19 19 4 7 44 -19 44 -28z m-3665 8 c-3 -6 -11 -11 -17 -11 -6 0
-6 6 2 15 14 17 26 13 15 -4z m3752 -6 c4 -4 3 -5 -4 -1 -6 3 -16 -2 -22 -11
-9 -16 -10 -16 -8 3 1 21 19 26 34 9z m-52 -5 c3 -5 2 -10 -4 -10 -5 0 -13 5
-16 10 -3 6 -2 10 4 10 5 0 13 -4 16 -10z m-3734 -23 c-13 -13 -26 -3 -16 12
3 6 11 8 17 5 6 -4 6 -10 -1 -17z m3888 -43 c13 -12 -8 -10 -29 2 l-25 15 25
-7 c14 -3 27 -8 29 -10z m-3414 -54 c3 -5 12 -7 19 -4 16 6 30 -23 15 -31 -5
-4 -7 -11 -4 -16 4 -5 2 -9 -3 -9 -6 0 -13 8 -16 17 -6 15 -8 15 -16 3 -8 -12
-10 -12 -16 3 -3 9 -10 17 -16 17 -5 0 -6 -4 -3 -10 3 -5 1 -10 -4 -10 -6 0
-11 2 -11 4 0 2 -3 12 -6 20 -4 12 -2 15 9 10 8 -3 18 -1 22 5 8 14 22 14 30
1z m140 -10 c26 0 28 -22 5 -43 -12 -10 -12 -9 -1 6 7 9 10 17 5 18 -5 0 -19
2 -31 3 -13 2 -23 -1 -23 -6 0 -5 -10 -6 -21 -3 -15 5 -19 4 -15 -4 4 -6 2
-11 -4 -11 -6 0 -10 8 -8 18 3 18 34 33 56 26 8 -2 24 -4 37 -4z m4310 0 c3
-5 1 -10 -4 -10 -6 0 -11 5 -11 10 0 6 2 10 4 10 3 0 8 -4 11 -10z m83 -38 c2
-7 -2 -10 -12 -6 -9 3 -16 11 -16 16 0 13 23 5 28 -10z m-4253 -2 c-3 -5 -12
-10 -18 -10 -7 0 -6 4 3 10 19 12 23 12 15 0z m-185 -15 c0 -8 -2 -15 -4 -15
-2 0 -6 7 -10 15 -3 8 -1 15 4 15 6 0 10 -7 10 -15z m-35 -5 c3 -5 1 -10 -4
-10 -6 0 -11 5 -11 10 0 6 2 10 4 10 3 0 8 -4 11 -10z m170 -6 c-31 -24 -75
-45 -75 -36 0 4 19 18 43 29 50 26 59 28 32 7z m4289 -12 c3 -5 -1 -9 -9 -9
-8 0 -12 4 -9 9 3 4 7 8 9 8 2 0 6 -4 9 -8z m-298 -70 c-8 -7 -36 25 -36 40 1
7 9 3 21 -11 11 -13 17 -26 15 -29z m-4219 22 c-3 -3 -12 -4 -19 -1 -8 3 -5 6
6 6 11 1 17 -2 13 -5z m4103 -14 c0 -5 -2 -10 -4 -10 -3 0 -8 5 -11 10 -3 6
-1 10 4 10 6 0 11 -4 11 -10z m382 -15 c-8 -16 -9 -16 -15 -1 -4 10 -3 15 3
11 6 -3 10 -1 10 6 0 7 3 10 6 6 3 -3 2 -13 -4 -22z m-4427 -4 c3 -5 2 -12 -3
-15 -5 -3 -9 1 -9 9 0 17 3 19 12 6z m4215 -1 c0 -5 -4 -10 -10 -10 -5 0 -10
5 -10 10 0 6 5 10 10 10 6 0 10 -4 10 -10z m240 0 c0 -5 -5 -10 -11 -10 -5 0
-7 5 -4 10 3 6 8 10 11 10 2 0 4 -4 4 -10z m-355 -20 c3 -5 1 -10 -4 -10 -6 0
-11 5 -11 10 0 6 2 10 4 10 3 0 8 -4 11 -10z m-187 -66 c-3 -14 -5 -12 -10 9
-3 19 -2 25 4 19 6 -6 8 -18 6 -28z m382 -4 c0 -5 -5 -10 -11 -10 -5 0 -7 5
-4 10 3 6 8 10 11 10 2 0 4 -4 4 -10z m-5171 -24 c8 -10 9 -16 1 -21 -5 -3
-10 0 -10 9 0 8 -6 17 -12 19 -8 4 -9 6 -2 6 6 1 17 -5 23 -13z m4844 -13 c-3
-7 -6 -13 -8 -13 -2 0 -5 6 -8 13 -3 8 1 14 8 14 7 0 11 -6 8 -14z m-4893 -19
c0 -8 -19 -13 -24 -6 -3 5 1 9 9 9 8 0 15 -2 15 -3z m4980 2 c0 -2 -7 -6 -15
-10 -8 -3 -15 -1 -15 4 0 6 7 10 15 10 8 0 15 -2 15 -4z m-4960 -14 c0 -5 -12
-14 -27 -21 l-28 -12 25 21 c29 22 30 23 30 12z m30 4 c0 -3 -4 -8 -10 -11 -5
-3 -10 -1 -10 4 0 6 5 11 10 11 6 0 10 -2 10 -4z m4860 0 c0 -2 -7 -7 -16 -10
-8 -3 -12 -2 -9 4 6 10 25 14 25 6z m46 -23 c-6 -6 -36 9 -36 18 0 5 9 4 20
-3 10 -7 18 -14 16 -15z m30 -60 c-6 -6 -36 9 -36 18 0 5 9 4 20 -3 10 -7 18
-14 16 -15z m-5066 7 c0 -5 -2 -10 -4 -10 -3 0 -8 5 -11 10 -3 6 -1 10 4 10 6
0 11 -4 11 -10z m50 -20 c-6 -11 -12 -20 -14 -20 -2 0 -2 9 1 20 3 11 9 20 15
20 5 0 4 -9 -2 -20z m5055 -1 c-6 -30 -10 -32 -25 -14 -11 13 -10 14 4 9 9 -4
16 -3 15 2 -2 13 0 24 5 24 3 0 3 -10 1 -21z m-5167 -1 c-3 -14 5 -14 35 -3
19 8 22 -2 7 -25 -7 -12 -10 -12 -10 -1 0 7 -6 11 -14 8 -16 -6 -40 16 -29 26
10 10 13 8 11 -5z m467 -78 c-3 -5 1 -10 9 -10 9 0 16 -4 16 -10 0 -5 7 -7 15
-4 8 4 15 1 15 -5 0 -16 -29 -13 -47 4 -8 8 -19 12 -25 9 -6 -4 -6 -10 1 -17
18 -18 12 -28 -8 -15 -17 11 -18 14 -4 35 14 22 41 34 28 13z m-113 -62 c-7
-7 -12 -8 -12 -2 0 14 12 26 19 19 2 -3 -1 -11 -7 -17z m52 -3 c-22 -17 -12
-20 17 -5 13 7 19 7 19 1 0 -14 -45 -25 -67 -17 -15 6 -14 9 7 21 34 18 48 18
24 0z m47 -28 c-10 -9 -11 -8 -5 6 3 10 9 15 12 12 3 -3 0 -11 -7 -18z m62
-43 c-14 -14 -28 -23 -31 -20 -3 3 5 14 16 25 23 19 30 37 10 25 -7 -4 -8 -3
-4 5 6 9 11 9 21 1 11 -9 8 -16 -12 -36z m-63 20 c0 -2 -7 -4 -15 -4 -8 0 -15
4 -15 10 0 5 7 7 15 4 8 -4 15 -8 15 -10z m30 -54 c0 -5 -4 -10 -10 -10 -5 0
-10 5 -10 10 0 6 5 10 10 10 6 0 10 -4 10 -10z m-194 -140 c0 -11 -4 -20 -9
-20 -4 0 -5 -5 -1 -12 4 -6 3 -8 -4 -5 -11 8 -11 25 1 45 11 16 13 15 13 -8z
m3541 -193 c192 -98 370 -152 628 -192 281 -43 418 -91 560 -196 103 -76 231
-158 284 -181 48 -21 119 -21 382 -2 l87 7 11 -34 c6 -19 36 -137 66 -264 30
-126 82 -341 116 -477 33 -136 58 -252 55 -257 -4 -5 -94 -10 -205 -11 -211
-1 -345 -16 -402 -45 -19 -10 -76 -47 -128 -82 -52 -36 -140 -86 -195 -113
-97 -46 -293 -117 -301 -108 -2 2 -6 160 -7 351 -3 372 -5 357 49 336 83 -33
165 -50 244 -50 102 -2 125 4 133 34 21 79 -4 106 -111 118 -95 10 -115 16
-225 67 l-88 41 0 56 c0 75 -18 140 -44 166 -24 24 -98 64 -318 175 -130 65
-150 79 -167 112 -16 31 -33 44 -112 81 -384 181 -420 203 -466 295 -32 63
-36 140 -9 181 17 25 22 27 66 22 27 -3 70 -17 97 -30z m-4330 -72 c0 -8 -4
-12 -9 -9 -5 3 -6 10 -3 15 9 13 12 11 12 -6z m73 -50 c0 -2 -9 -3 -19 -2 -11
0 -18 5 -15 9 4 6 34 0 34 -7z m3652 -120 c149 -75 276 -140 282 -144 6 -5
121 -65 256 -133 135 -69 352 -180 483 -248 l239 -123 -39 -24 c-21 -13 -118
-65 -217 -114 -98 -50 -196 -102 -218 -115 l-39 -25 -177 89 c-97 49 -267 136
-377 192 -110 56 -373 190 -585 297 -355 179 -421 216 -409 226 2 2 51 29 109
60 241 127 384 197 401 197 10 0 141 -61 291 -135z m3230 58 c50 -87 63 -115
141 -293 217 -500 329 -1029 336 -1587 2 -177 11 -164 -119 -183 -47 -6 -159
-24 -250 -40 -91 -15 -168 -26 -172 -24 -4 3 -14 39 -23 82 -9 42 -37 156 -62
252 -50 194 -102 403 -228 924 -46 191 -92 374 -101 405 -15 53 -104 407 -104
416 0 2 17 7 38 11 93 16 314 71 417 103 71 22 80 17 127 -66z m-6952 -78 c0
-5 -5 -3 -10 5 -5 8 -10 20 -10 25 0 6 5 3 10 -5 5 -8 10 -19 10 -25z m-44 5
c0 -12 -4 -16 -9 -11 -5 5 -6 14 -3 20 10 15 12 14 12 -9z m-32 -245 c-20 -14
-38 -10 -28 6 3 5 10 7 15 4 11 -8 11 6 0 24 -14 22 -39 6 -36 -23 2 -14 0
-24 -4 -21 -11 6 -7 37 9 61 13 22 13 22 38 -8 24 -28 24 -29 6 -43z m-84 31
c0 -2 -7 -7 -16 -10 -8 -3 -12 -2 -9 4 6 10 25 14 25 6z m133 -49 c-2 -4 -9
-5 -14 -1 -5 3 -16 0 -24 -6 -20 -17 -19 -5 1 19 13 15 20 16 29 8 7 -7 11
-15 8 -20z m1 -28 c-6 -11 -24 -2 -24 11 0 5 7 7 15 4 8 -4 12 -10 9 -15z m79
-52 c-7 -11 -23 2 -23 19 0 12 2 12 14 2 8 -7 12 -16 9 -21z m258 10 c-10 -9
-11 -8 -5 6 3 10 9 15 12 12 3 -3 0 -11 -7 -18z m2818 -338 c837 -423 884
-448 869 -466 -6 -8 -135 -76 -287 -153 l-275 -139 -246 124 c-135 67 -285
144 -335 170 -49 26 -276 142 -504 257 -228 115 -425 218 -439 228 l-24 19
169 85 c92 46 218 111 278 145 61 33 116 60 124 61 8 0 309 -149 670 -331z
m-2914 201 c3 -5 1 -10 -4 -10 -6 0 -11 5 -11 10 0 6 2 10 4 10 3 0 8 -4 11
-10z m-27 -12 c-2 -7 2 -12 9 -11 7 2 10 -4 7 -12 -5 -13 -8 -13 -21 0 -8 8
-11 19 -8 25 9 14 16 13 13 -2z m-544 -294 c3 -8 2 -12 -4 -9 -6 3 -10 10 -10
16 0 14 7 11 14 -7z m77 -11 c-12 -20 -14 -14 -5 12 4 9 9 14 11 11 3 -2 0
-13 -6 -23z m2317 -122 c131 -65 356 -180 500 -255 145 -75 267 -136 271 -136
3 0 54 -26 111 -58 58 -32 170 -92 250 -132 80 -40 153 -80 163 -88 16 -14 17
-73 17 -974 0 -574 -4 -958 -9 -958 -5 0 -62 27 -125 61 -113 59 -136 79 -136
116 0 10 -11 42 -25 71 l-25 54 27 35 c32 42 42 129 23 189 -21 64 -86 142
-158 188 -37 24 -157 87 -267 142 -340 167 -548 286 -675 384 -29 22 -36 19
108 54 197 48 345 143 393 251 29 66 30 162 2 225 -51 113 -158 145 -353 105
-41 -8 -137 -18 -212 -22 l-138 -6 0 437 c0 308 3 436 11 436 6 0 117 -53 247
-119z m3048 103 c-3 -8 -2 -12 4 -9 6 4 10 -44 11 -132 5 -1377 2 -1744 -11
-1757 -8 -7 -105 -60 -215 -116 -110 -57 -272 -140 -360 -185 -88 -46 -288
-149 -445 -230 -157 -81 -340 -176 -408 -211 -68 -36 -127 -62 -132 -59 -6 3
-9 403 -9 958 l0 952 32 22 c18 11 122 67 232 123 110 57 228 118 263 136 39
21 62 29 63 21 0 -6 1 -133 2 -282 1 -172 6 -270 12 -270 17 0 365 179 386
198 18 16 19 34 20 230 2 388 -5 346 69 387 96 53 466 238 479 239 8 1 11 -5
7 -15z m-5248 -49 c0 -35 -12 -39 -39 -14 -22 18 -22 19 -3 10 18 -9 23 -7 27
9 7 28 15 25 15 -5z m22 5 c0 -5 -5 -10 -11 -10 -5 0 -7 5 -4 10 3 6 8 10 11
10 2 0 4 -4 4 -10z m-176 -90 c-6 -6 -10 -2 -11 12 -2 16 1 18 10 9 7 -7 8
-14 1 -21z m-27 -5 c0 -8 -9 -15 -19 -15 -18 0 -24 11 -11 23 12 12 30 7 30
-8z m220 -7 c2 -17 0 -19 -7 -8 -5 8 -6 18 -4 22 8 12 10 10 11 -14z m30 15
c-8 -7 11 -33 25 -33 5 0 7 4 4 8 -2 4 4 8 15 8 19 0 19 -1 2 -14 -15 -11 -16
-14 -3 -22 8 -5 18 -6 24 -3 5 3 6 1 2 -6 -8 -12 -19 -8 -49 18 -16 13 -19 13
-27 1 -6 -10 -8 -5 -5 15 5 37 4 35 12 35 3 0 3 -3 0 -7z m16 -88 c-9 -15 -11
-15 -23 0 -11 13 -10 14 5 8 15 -5 17 -3 11 13 -5 14 -4 16 4 7 8 -7 9 -17 3
-28z m2397 -780 c19 -23 6 -90 -25 -131 -48 -63 -174 -112 -383 -148 -116 -20
-136 -26 -162 -51 -41 -40 -42 -105 -2 -157 59 -78 231 -199 437 -308 55 -29
134 -72 175 -95 64 -36 172 -90 447 -222 73 -35 113 -78 113 -121 0 -52 -15
-72 -55 -72 -85 0 -405 130 -683 277 -131 69 -152 73 -192 33 -33 -33 -27 -83
15 -117 29 -24 316 -174 390 -204 11 -4 61 -26 111 -48 94 -41 228 -89 326
-116 35 -9 62 -23 68 -35 15 -29 12 -72 -9 -99 -14 -19 -27 -23 -63 -23 -83 2
-379 123 -706 289 -123 62 -231 113 -242 113 -10 0 -33 -14 -50 -31 -46 -46
-39 -75 30 -121 104 -69 453 -242 658 -326 34 -14 62 -31 62 -38 0 -23 -51
-54 -91 -54 -86 0 -443 149 -652 274 -91 53 -132 59 -166 22 -17 -18 -22 -33
-19 -62 3 -36 8 -42 68 -78 35 -21 138 -76 228 -122 142 -72 161 -84 143 -93
-57 -31 -204 9 -416 113 -155 77 -270 148 -425 264 -103 77 -289 228 -315 256
-42 45 -172 152 -220 181 -64 38 -204 95 -355 145 -52 17 -101 34 -107 38 -13
8 25 122 172 522 29 80 66 183 83 230 29 82 31 85 58 82 16 -2 56 -15 89 -28
125 -52 172 -66 245 -71 89 -6 143 6 315 70 175 65 235 72 463 51 197 -17 329
-15 472 10 106 19 155 19 170 1z m-2357 -920 c-3 -9 -8 -14 -10 -11 -3 3 -2 9
2 15 9 16 15 13 8 -4z m-100 -89 c4 -10 1 -13 -8 -9 -8 3 -12 9 -9 14 7 12 11
11 17 -5z m-13 -31 c0 -1 -12 -2 -26 -2 -17 0 -22 2 -13 7 10 7 39 3 39 -5z
m111 -28 c-7 -20 -19 -38 -28 -41 -17 -7 -173 34 -173 45 0 4 27 -2 61 -12 92
-29 115 -26 130 16 16 45 25 37 10 -8z m253 -62 c64 -189 196 -471 300 -638
152 -247 298 -429 531 -663 369 -371 847 -665 1335 -822 343 -111 673 -163
1028 -163 468 0 951 117 1402 340 149 74 283 151 352 202 25 19 102 76 172
127 108 80 380 334 434 405 16 21 27 117 15 134 -9 13 -307 217 -412 282 -39
24 -71 49 -71 55 0 6 42 29 93 50 50 22 130 57 177 79 47 22 128 56 180 77
106 43 170 71 292 128 45 22 162 73 258 115 97 42 215 94 263 116 49 23 92 41
96 41 5 0 55 22 112 49 57 27 107 47 111 45 10 -6 -2 -1767 -13 -1778 -4 -5
-38 13 -76 41 -182 133 -416 287 -452 296 -20 5 -49 -20 -210 -182 -282 -285
-420 -395 -830 -660 -155 -100 -572 -288 -788 -355 -374 -116 -822 -176 -1198
-161 -93 3 -188 8 -210 10 -22 2 -71 7 -110 10 -150 13 -407 61 -615 114 -157
41 -193 53 -337 112 -81 34 -165 67 -186 75 -69 26 -357 173 -450 230 -140 86
-294 191 -371 253 -38 31 -97 78 -130 104 -178 140 -470 438 -596 607 -14 18
-48 63 -76 99 -64 84 -144 200 -218 321 -90 144 -257 490 -305 630 -23 69 -47
133 -52 143 -13 25 -7 30 22 18 13 -5 81 -26 151 -46 154 -46 182 -44 231 18
18 23 50 86 71 140 21 54 42 95 46 90 4 -4 19 -44 34 -88z"/>
<path d="M14586 13434 c-5 -14 -4 -15 9 -4 17 14 19 20 6 20 -5 0 -12 -7 -15
-16z"/>
<path d="M13381 13431 c-8 -5 -9 -11 -3 -15 5 -3 12 1 16 9 6 17 6 18 -13 6z"/>
<path d="M13465 13430 c3 -5 8 -10 11 -10 2 0 4 5 4 10 0 6 -5 10 -11 10 -5 0
-7 -4 -4 -10z"/>
<path d="M13901 13426 c-9 -10 -8 -15 2 -19 8 -3 13 3 13 14 0 23 0 23 -15 5z"/>
<path d="M14316 13432 c2 -3 0 -10 -6 -16 -5 -7 -5 -17 2 -26 8 -13 9 -12 5 2
-3 9 -1 19 6 21 9 3 9 7 1 15 -6 5 -9 7 -8 4z"/>
<path d="M14361 13423 c14 -16 33 -18 23 -1 -5 8 -2 9 9 5 10 -3 17 -2 17 3 0
5 -13 8 -30 8 -24 -1 -28 -4 -19 -15z"/>
<path d="M14470 13436 c0 -2 7 -9 15 -16 9 -7 15 -8 15 -2 0 5 -7 12 -15 16
-8 3 -15 4 -15 2z"/>
<path d="M14530 13431 c0 -10 19 -25 25 -20 1 2 -3 10 -11 17 -8 7 -14 8 -14
3z"/>
<path d="M14020 13418 c0 -10 -5 -18 -12 -18 -6 0 -9 -3 -5 -6 3 -3 12 -2 21
3 10 6 12 13 6 23 -8 13 -10 12 -10 -2z"/>
<path d="M14100 13420 c0 -5 5 -10 10 -10 6 0 10 5 10 10 0 6 -4 10 -10 10 -5
0 -10 -4 -10 -10z"/>
<path d="M14180 13421 c0 -5 5 -13 10 -16 6 -3 10 -2 10 4 0 5 -4 13 -10 16
-5 3 -10 2 -10 -4z"/>
<path d="M13586 13412 c5 -4 12 -11 15 -15 3 -5 9 -2 12 5 3 9 -3 14 -15 15
-11 1 -16 -1 -12 -5z"/>
<path d="M13795 13380 c10 -11 20 -20 23 -20 3 0 -3 9 -13 20 -10 11 -20 20
-23 20 -3 0 3 -9 13 -20z"/>
<path d="M13114 13375 c-10 -8 -14 -14 -9 -15 15 0 40 18 34 24 -3 3 -14 -1
-25 -9z"/>
<path d="M13153 13379 c2 -8 9 -13 15 -12 6 2 9 -4 6 -12 -4 -8 -2 -15 4 -15
16 0 7 31 -12 42 -14 8 -17 7 -13 -3z"/>
<path d="M13500 13376 c0 -2 7 -7 16 -10 8 -3 12 -2 9 4 -6 10 -25 14 -25 6z"/>
<path d="M13573 13365 c-7 -8 -21 -18 -30 -24 -14 -8 -16 -12 -5 -22 10 -11
12 -10 12 5 0 9 3 15 8 13 9 -5 43 31 34 37 -4 2 -13 -2 -19 -9z"/>
<path d="M14416 13367 c3 -10 9 -15 12 -12 3 3 0 11 -7 18 -10 9 -11 8 -5 -6z"/>
<path d="M13260 13360 c-14 -4 -33 -6 -42 -4 -10 1 -18 -1 -18 -6 0 -14 70
-17 82 -3 14 18 8 22 -22 13z"/>
<path d="M13373 13342 c-12 -15 -20 -29 -17 -31 3 -3 9 1 14 9 14 23 62 -38
55 -69 -6 -22 -5 -22 11 -7 12 12 14 20 6 28 -6 6 -8 18 -5 27 4 14 3 14 -6 1
-6 -9 -11 -10 -11 -3 0 6 -7 19 -17 28 -13 13 -13 19 -4 25 7 4 9 10 4 13 -4
3 -18 -7 -30 -21z"/>
<path d="M14968 13359 c-7 -4 -16 -5 -20 -3 -4 3 -8 0 -8 -6 0 -7 19 -11 53
-9 29 1 58 -1 64 -4 7 -4 14 -3 17 2 4 5 1 13 -5 17 -16 10 -87 11 -101 3z"/>
<path d="M13050 13350 c0 -5 5 -10 11 -10 5 0 7 5 4 10 -3 6 -8 10 -11 10 -2
0 -4 -4 -4 -10z"/>
<path d="M13334 13349 c2 -15 20 -13 24 3 3 10 2 10 -6 -1 -7 -9 -11 -10 -15
-2 -4 7 -5 8 -3 0z"/>
<path d="M14890 13350 c0 -5 10 -10 23 -10 18 0 19 2 7 10 -19 13 -30 13 -30
0z"/>
<path d="M13300 13336 c0 -9 5 -16 10 -16 6 0 10 4 10 9 0 6 -4 13 -10 16 -5
3 -10 -1 -10 -9z"/>
<path d="M13462 13330 c-19 -30 -14 -36 8 -10 22 25 24 30 12 30 -4 0 -13 -9
-20 -20z"/>
<path d="M13600 13340 c-9 -6 -10 -10 -3 -10 6 0 15 5 18 10 8 12 4 12 -15 0z"/>
<path d="M13608 13313 c-11 -14 -11 -15 7 -6 11 6 24 11 28 11 18 1 15 8 -3 9
-10 1 -25 -6 -32 -14z"/>
<path d="M14175 13320 c3 -5 8 -10 11 -10 2 0 4 5 4 10 0 6 -5 10 -11 10 -5 0
-7 -4 -4 -10z"/>
<path d="M13480 13299 c-22 -18 -22 -19 -3 -10 12 6 25 16 28 21 9 15 3 12
-25 -11z"/>
<path d="M14010 13316 c0 -2 7 -7 16 -10 8 -3 12 -2 9 4 -6 10 -25 14 -25 6z"/>
<path d="M15080 13310 c-12 -7 -10 -9 7 -7 12 0 19 5 17 9 -6 10 -6 10 -24 -2z"/>
<path d="M13280 13299 c0 -5 5 -7 10 -4 6 3 10 8 10 11 0 2 -4 4 -10 4 -5 0
-10 -5 -10 -11z"/>
<path d="M13306 13295 c-9 -26 -7 -32 5 -12 6 10 9 21 6 23 -2 3 -7 -2 -11
-11z"/>
<path d="M13516 13301 c-4 -6 -4 -12 1 -12 35 -6 52 -5 47 3 -3 4 -10 5 -16 2
-6 -4 -14 -1 -18 6 -5 9 -9 9 -14 1z"/>
<path d="M13950 13305 c0 -5 5 -17 10 -25 5 -8 10 -10 10 -5 0 6 -5 17 -10 25
-5 8 -10 11 -10 5z"/>
<path d="M13656 13287 c3 -10 9 -15 12 -12 3 3 0 11 -7 18 -10 9 -11 8 -5 -6z"/>
<path d="M15322 13278 c15 -26 28 -38 43 -38 6 0 3 5 -5 10 -10 7 -11 10 -2
10 7 0 15 -7 18 -15 8 -19 24 -9 24 15 0 20 -22 32 -44 24 -8 -3 -17 -1 -21 5
-13 22 -25 10 -13 -11z"/>
<path d="M13576 13274 c-4 -10 -13 -13 -28 -9 -20 5 -21 5 -5 -5 13 -8 22 -9
31 -1 7 6 16 8 19 4 4 -3 7 -1 7 5 0 18 -17 23 -24 6z"/>
<path d="M13610 13286 c0 -2 7 -7 16 -10 8 -3 12 -2 9 4 -6 10 -25 14 -25 6z"/>
<path d="M15062 13265 c-1 -13 2 -27 7 -30 6 -3 8 6 7 20 -4 34 -11 40 -14 10z"/>
<path d="M15182 13260 c-21 -17 -21 -19 -3 -17 11 0 19 4 19 7 -2 18 4 23 12
10 6 -9 10 -10 10 -3 0 21 -14 22 -38 3z"/>
<path d="M15305 13270 c-3 -5 -1 -10 4 -10 6 0 11 5 11 10 0 6 -2 10 -4 10 -3
0 -8 -4 -11 -10z"/>
<path d="M13080 13259 c0 -5 5 -7 10 -4 6 3 10 8 10 11 0 2 -4 4 -10 4 -5 0
-10 -5 -10 -11z"/>
<path d="M13355 13260 c3 -5 8 -10 11 -10 2 0 4 5 4 10 0 6 -5 10 -11 10 -5 0
-7 -4 -4 -10z"/>
<path d="M13398 13263 c7 -3 16 -2 19 1 4 3 -2 6 -13 5 -11 0 -14 -3 -6 -6z"/>
<path d="M13487 13245 c-10 -14 -14 -25 -9 -25 6 0 13 7 16 16 3 8 10 12 16 9
6 -3 7 1 4 9 -7 20 -5 20 -27 -9z"/>
<path d="M13713 13253 c-10 -16 -13 -16 -22 -3 -7 9 -11 10 -11 3 0 -6 5 -15
10 -18 21 -13 9 -27 -17 -21 -16 3 -22 3 -15 0 6 -3 12 -12 12 -20 0 -12 5
-12 25 3 13 10 25 26 25 36 0 10 4 15 10 12 6 -3 7 1 4 9 -8 20 -7 20 -21 -1z"/>
<path d="M13760 13250 c-8 -5 -12 -12 -9 -15 4 -3 12 1 19 10 14 17 11 19 -10
5z"/>
<path d="M13920 13251 c0 -6 4 -13 10 -16 6 -3 7 1 4 9 -7 18 -14 21 -14 7z"/>
<path d="M13537 13233 c-4 -3 -7 -13 -7 -22 1 -13 3 -13 11 2 11 19 8 33 -4
20z"/>
<path d="M15180 13220 c8 -5 20 -10 25 -10 6 0 3 5 -5 10 -8 5 -19 10 -25 10
-5 0 -3 -5 5 -10z"/>
<path d="M12665 13210 c-3 -5 -10 -8 -15 -5 -5 3 -11 1 -15 -4 -3 -6 3 -15 14
-20 28 -16 33 -14 26 10 -6 17 0 15 25 -12 18 -19 26 -25 19 -15 -13 18 -12
19 9 14 19 -5 21 -4 11 8 -6 7 -16 11 -21 8 -5 -3 -18 2 -28 11 -12 11 -20 13
-25 5z"/>
<path d="M13500 13210 c0 -5 5 -10 10 -10 6 0 10 5 10 10 0 6 -4 10 -10 10 -5
0 -10 -4 -10 -10z"/>
<path d="M13730 13209 c0 -5 5 -7 10 -4 6 3 10 8 10 11 0 2 -4 4 -10 4 -5 0
-10 -5 -10 -11z"/>
<path d="M13970 13210 c0 -5 5 -10 11 -10 5 0 7 5 4 10 -3 6 -8 10 -11 10 -2
0 -4 -4 -4 -10z"/>
<path d="M15066 13207 c3 -10 9 -15 12 -12 3 3 0 11 -7 18 -10 9 -11 8 -5 -6z"/>
<path d="M15143 13205 c-7 -8 -9 -16 -4 -19 5 -3 12 1 15 10 8 22 4 25 -11 9z"/>
<path d="M14627 13189 c7 -7 15 -10 18 -7 3 3 -2 9 -12 12 -14 6 -15 5 -6 -5z"/>
<path d="M14864 13180 c0 -13 4 -16 10 -10 7 7 7 13 0 20 -6 6 -10 3 -10 -10z"/>
<path d="M14997 13176 c20 -26 27 -28 17 -3 -3 8 -12 18 -20 21 -11 4 -10 0 3
-18z"/>
<path d="M13810 13182 c0 -5 7 -13 16 -16 10 -4 14 -1 12 6 -5 15 -28 23 -28
10z"/>
<path d="M14699 13173 c-13 -16 -12 -17 4 -4 16 13 21 21 13 21 -2 0 -10 -8
-17 -17z"/>
<path d="M14730 13181 c0 -10 19 -25 25 -20 1 2 -3 10 -11 17 -8 7 -14 8 -14
3z"/>
<path d="M15107 13173 c11 -10 22 -25 26 -33 5 -13 6 -13 6 1 1 16 -29 49 -44
49 -4 0 1 -8 12 -17z"/>
<path d="M13516 13165 c-11 -8 -15 -15 -9 -15 6 0 16 7 23 15 16 19 11 19 -14
0z"/>
<path d="M13906 13167 c3 -10 9 -15 12 -12 3 3 0 11 -7 18 -10 9 -11 8 -5 -6z"/>
<path d="M13961 13164 c0 -11 3 -14 6 -6 3 7 2 16 -1 19 -3 4 -6 -2 -5 -13z"/>
<path d="M15192 13163 c6 -7 13 -11 16 -8 3 3 12 -1 21 -7 12 -10 12 -7 -2 8
-9 11 -24 21 -32 21 -11 0 -12 -4 -3 -14z"/>
<path d="M13730 13166 c0 -2 7 -9 15 -16 13 -11 14 -10 9 4 -5 14 -24 23 -24
12z"/>
<path d="M14980 13161 c0 -6 4 -13 10 -16 6 -3 7 1 4 9 -7 18 -14 21 -14 7z"/>
<path d="M12670 13140 c0 -5 5 -10 11 -10 6 0 8 -9 4 -22 -6 -19 -5 -21 6 -11
10 10 16 10 28 1 9 -7 3 2 -13 20 -32 35 -36 37 -36 22z"/>
<path d="M13300 13141 c0 -5 5 -13 10 -16 6 -3 10 -2 10 4 0 5 -4 13 -10 16
-5 3 -10 2 -10 -4z"/>
<path d="M13585 13139 c-4 -6 -5 -12 -2 -15 2 -3 7 2 10 11 7 17 1 20 -8 4z"/>
<path d="M12495 13131 c3 -6 14 -9 25 -8 23 2 17 10 -11 14 -11 2 -18 -1 -14
-6z"/>
<path d="M13820 13129 c0 -5 5 -7 10 -4 6 3 10 8 10 11 0 2 -4 4 -10 4 -5 0
-10 -5 -10 -11z"/>
<path d="M13925 13130 c-3 -6 1 -7 9 -4 18 7 21 14 7 14 -6 0 -13 -4 -16 -10z"/>
<path d="M14977 13114 c6 -15 23 -19 23 -5 0 5 -7 11 -14 14 -10 4 -13 1 -9
-9z"/>
<path d="M12747 13102 c2 -10 11 -19 19 -19 11 0 11 4 -3 19 -9 10 -17 18 -19
18 -1 0 0 -8 3 -18z"/>
<path d="M14555 13111 c-3 -5 -2 -12 3 -15 5 -3 9 1 9 9 0 17 -3 19 -12 6z"/>
<path d="M14690 13109 c0 -5 5 -7 10 -4 6 3 10 8 10 11 0 2 -4 4 -10 4 -5 0
-10 -5 -10 -11z"/>
<path d="M14610 13104 c0 -7 30 -37 33 -33 2 2 9 13 17 24 14 19 14 19 -2 6
-12 -9 -18 -10 -18 -2 0 6 -7 11 -15 11 -8 0 -15 -3 -15 -6z"/>
<path d="M12650 13096 c0 -2 8 -10 18 -17 15 -13 16 -12 3 4 -13 16 -21 21
-21 13z"/>
<path d="M14580 13096 c0 -2 8 -10 18 -17 15 -13 16 -12 3 4 -13 16 -21 21
-21 13z"/>
<path d="M14866 13087 c3 -10 9 -15 12 -12 3 3 0 11 -7 18 -10 9 -11 8 -5 -6z"/>
<path d="M12357 13069 c7 -7 15 -10 18 -7 3 3 -2 9 -12 12 -14 6 -15 5 -6 -5z"/>
<path d="M12907 13059 c4 -13 8 -18 11 -10 2 7 -1 18 -6 23 -8 8 -9 4 -5 -13z"/>
<path d="M14527 13073 c-11 -11 -8 -21 9 -27 13 -5 14 -4 6 7 -7 8 -9 17 -5
20 3 4 4 7 1 7 -2 0 -8 -3 -11 -7z"/>
<path d="M14562 13072 c-9 -6 -6 -14 12 -31 24 -22 25 -23 23 -3 -1 13 -6 18
-16 14 -10 -4 -13 -1 -8 11 7 19 7 20 -11 9z"/>
<path d="M14791 13077 c2 -1 13 -9 24 -17 19 -14 19 -14 6 3 -7 9 -18 17 -24
17 -6 0 -8 -1 -6 -3z"/>
<path d="M12541 13047 c-13 -21 -12 -21 5 -5 10 10 16 20 13 22 -3 3 -11 -5
-18 -17z"/>
<path d="M12736 13054 c-3 -8 1 -22 9 -30 13 -14 15 -13 15 10 0 29 -15 43
-24 20z"/>
<path d="M12888 13031 c15 -21 28 -35 30 -30 2 4 -6 18 -17 31 -12 12 -21 25
-21 30 0 4 -4 8 -10 8 -5 0 3 -17 18 -39z"/>
<path d="M14016 13057 c3 -10 9 -15 12 -12 3 3 0 11 -7 18 -10 9 -11 8 -5 -6z"/>
<path d="M14464 13043 c9 -18 21 -33 26 -33 16 0 12 9 -16 38 l-26 27 16 -32z"/>
<path d="M14645 13060 c-3 -5 -2 -10 3 -10 5 0 14 -10 21 -22 7 -14 9 -16 6
-5 -3 10 -5 25 -5 33 0 16 -16 19 -25 4z"/>
<path d="M14751 13067 c2 -1 13 -9 24 -17 19 -14 19 -14 6 3 -7 9 -18 17 -24
17 -6 0 -8 -1 -6 -3z"/>
<path d="M12599 13047 c6 -8 9 -17 6 -21 -3 -3 0 -2 6 3 12 10 4 31 -13 31 -7
0 -7 -4 1 -13z"/>
<path d="M12667 13049 c6 -6 9 -19 6 -28 -4 -14 -3 -14 6 -1 8 12 11 12 11 1
0 -8 8 -4 19 10 23 29 20 35 -8 19 -14 -7 -21 -7 -21 0 0 5 -5 10 -12 10 -9 0
-9 -3 -1 -11z"/>
<path d="M12849 13043 c12 -24 31 -39 31 -25 0 5 -10 17 -21 28 -22 19 -22 19
-10 -3z"/>
<path d="M12959 13027 c19 -21 30 -37 23 -37 -7 0 -12 -7 -12 -15 0 -20 16
-19 24 1 10 25 8 27 -32 58 l-37 29 34 -36z"/>
<path d="M13026 13047 c3 -10 9 -15 12 -12 3 3 0 11 -7 18 -10 9 -11 8 -5 -6z"/>
<path d="M14410 13050 c0 -5 6 -9 13 -7 6 1 11 -4 9 -11 -1 -8 2 -11 7 -7 14
8 2 35 -15 35 -8 0 -14 -4 -14 -10z"/>
<path d="M14610 13049 c0 -5 5 -7 10 -4 6 3 10 8 10 11 0 2 -4 4 -10 4 -5 0
-10 -5 -10 -11z"/>
<path d="M12455 13040 c3 -5 10 -10 16 -10 5 0 9 5 9 10 0 6 -7 10 -16 10 -8
0 -12 -4 -9 -10z"/>
<path d="M14636 13027 c3 -10 9 -15 12 -12 3 3 0 11 -7 18 -10 9 -11 8 -5 -6z"/>
<path d="M12723 13013 c12 -13 16 -27 11 -35 -6 -10 -4 -10 9 1 10 8 16 14 15
15 -2 1 -14 10 -28 21 l-25 20 18 -22z"/>
<path d="M12830 13023 c1 -10 36 -53 44 -53 3 0 6 7 6 15 0 8 -4 15 -9 15 -5
0 -17 7 -25 16 -9 8 -16 12 -16 7z"/>
<path d="M14787 13012 c-10 -10 -17 -22 -17 -27 0 -5 9 1 21 14 12 12 19 24
17 27 -3 2 -12 -4 -21 -14z"/>
<path d="M14937 13019 c7 -7 15 -10 18 -7 3 3 -2 9 -12 12 -14 6 -15 5 -6 -5z"/>
<path d="M12947 12999 c5 -17 3 -20 -8 -14 -12 8 -12 6 0 -8 7 -9 16 -17 19
-17 3 0 2 3 -1 7 -4 3 -2 12 3 18 7 9 6 16 -4 24 -12 10 -13 8 -9 -10z"/>
<path d="M14015 13011 c-3 -5 -1 -12 5 -16 5 -3 10 1 10 9 0 18 -6 21 -15 7z"/>
<path d="M12664 12985 c10 -7 15 -18 11 -24 -3 -7 0 -8 9 -5 9 3 16 9 16 11 0
9 -34 32 -45 32 -5 0 -2 -6 9 -14z"/>
<path d="M12791 12983 c12 -14 12 -16 -1 -11 -11 4 -15 -2 -16 -21 -1 -14 1
-20 3 -13 7 19 23 14 17 -5 -5 -14 -4 -15 4 -4 6 8 8 20 5 28 -3 9 0 11 10 7
8 -3 18 -1 22 5 3 6 0 9 -8 5 -8 -3 -17 2 -20 10 -4 9 -12 16 -18 16 -8 0 -7
-5 2 -17z"/>
<path d="M14200 12996 c0 -2 7 -6 15 -10 8 -3 15 -1 15 4 0 6 -7 10 -15 10 -8
0 -15 -2 -15 -4z"/>
<path d="M14700 12980 c0 -5 5 -10 11 -10 5 0 7 5 4 10 -3 6 -8 10 -11 10 -2
0 -4 -4 -4 -10z"/>
<path d="M12913 12966 c4 -9 1 -16 -5 -16 -23 0 4 -15 28 -15 13 -1 24 0 24 0
0 1 -12 12 -27 24 -18 17 -24 19 -20 7z"/>
<path d="M13090 12961 c0 -6 4 -13 10 -16 6 -3 7 1 4 9 -7 18 -14 21 -14 7z"/>
<path d="M13318 12963 c7 -3 16 -2 19 1 4 3 -2 6 -13 5 -11 0 -14 -3 -6 -6z"/>
<path d="M12750 12924 c36 -33 56 -65 30 -49 -5 3 -10 1 -10 -5 0 -14 22 -8
27 7 4 10 -65 83 -79 83 -5 0 10 -16 32 -36z"/>
<path d="M13025 12950 c-3 -5 -1 -10 4 -10 6 0 11 5 11 10 0 6 -2 10 -4 10 -3
0 -8 -4 -11 -10z"/>
<path d="M12826 12933 c-4 -9 0 -23 9 -33 23 -25 18 -36 -6 -14 -22 19 -22 19
-8 -3 7 -13 20 -25 27 -28 8 -3 10 0 6 7 -5 8 -2 9 10 5 13 -5 11 1 -9 24 -18
22 -23 34 -15 39 8 5 9 10 2 14 -5 3 -13 -1 -16 -11z"/>
<path d="M12976 12938 c3 -4 9 -8 15 -8 5 0 9 4 9 8 0 5 -7 9 -15 9 -8 0 -12
-4 -9 -9z"/>
<path d="M13053 12935 c0 -8 4 -12 9 -9 5 3 6 10 3 15 -9 13 -12 11 -12 -6z"/>
<path d="M12650 12936 c0 -2 8 -10 18 -17 15 -13 16 -12 3 4 -13 16 -21 21
-21 13z"/>
<path d="M12701 12923 c7 -10 15 -20 16 -22 2 -2 3 5 3 17 0 14 -6 22 -16 22
-14 0 -15 -3 -3 -17z"/>
<path d="M13317 12919 c4 -13 8 -18 11 -10 2 7 -1 18 -6 23 -8 8 -9 4 -5 -13z"/>
<path d="M15701 12923 c7 -12 15 -20 18 -17 3 2 -3 12 -13 22 -17 16 -18 16
-5 -5z"/>
<path d="M15756 12925 c5 -11 2 -13 -12 -8 -12 4 -15 3 -10 -6 5 -7 14 -10 21
-7 7 2 18 -1 25 -7 7 -7 5 0 -5 16 -19 30 -28 35 -19 12z"/>
<path d="M15817 12925 c5 -15 3 -17 -13 -11 -14 5 -16 4 -7 -4 7 -8 17 -9 28
-3 15 9 15 11 0 23 -13 11 -14 10 -8 -5z"/>
<path d="M15895 12910 c16 -16 33 -30 38 -30 6 0 0 8 -11 19 -12 10 -22 23
-22 30 0 6 -8 11 -17 11 -13 0 -10 -7 12 -30z"/>
<path d="M15170 12920 c0 -5 5 -10 10 -10 6 0 10 5 10 10 0 6 -4 10 -10 10 -5
0 -10 -4 -10 -10z"/>
<path d="M15667 12915 c-4 -8 -3 -16 1 -19 4 -3 9 4 9 15 2 23 -3 25 -10 4z"/>
<path d="M12985 12909 c-4 -6 -5 -12 -2 -15 2 -3 7 2 10 11 7 17 1 20 -8 4z"/>
<path d="M13345 12910 c-3 -6 1 -7 9 -4 18 7 21 14 7 14 -6 0 -13 -4 -16 -10z"/>
<path d="M12730 12906 c0 -2 7 -9 15 -16 9 -7 15 -8 15 -2 0 5 -7 12 -15 16
-8 3 -15 4 -15 2z"/>
<path d="M12690 12890 c0 -5 5 -10 11 -10 5 0 7 5 4 10 -3 6 -8 10 -11 10 -2
0 -4 -4 -4 -10z"/>
<path d="M15730 12881 c0 -6 4 -13 10 -16 6 -3 7 1 4 9 -7 18 -14 21 -14 7z"/>
<path d="M15469 12864 c6 -12 20 -24 31 -27 11 -3 18 -1 14 4 -3 5 -10 9 -16
9 -6 0 -17 8 -25 18 -13 15 -13 15 -4 -4z"/>
<path d="M15717 12855 c11 -16 18 -36 16 -42 -3 -7 0 -13 7 -13 6 0 8 5 5 10
-3 6 -1 10 5 10 6 0 8 5 5 10 -9 14 19 12 34 -2 10 -11 11 -9 5 5 -6 17 -5 18
15 6 23 -15 27 -25 10 -31 -7 -2 -5 -9 5 -17 14 -12 16 -12 9 4 -5 15 -3 17
13 11 14 -5 11 2 -11 23 -26 26 -34 29 -60 22 -24 -7 -35 -4 -54 13 l-25 21
21 -30z"/>
<path d="M11910 12849 c0 -5 -4 -7 -10 -4 -5 3 -10 0 -10 -8 0 -20 25 -17 39
5 9 14 8 18 -4 18 -8 0 -15 -5 -15 -11z"/>
<path d="M15927 12833 c10 -18 21 -33 26 -33 14 0 7 17 -19 41 l-26 24 19 -32z"/>
<path d="M12844 12831 c20 -22 26 -25 26 -13 0 4 -10 13 -22 21 -23 14 -23 14
-4 -8z"/>
<path d="M15540 12841 c0 -6 4 -13 10 -16 6 -3 7 1 4 9 -7 18 -14 21 -14 7z"/>
<path d="M15690 12841 c0 -5 7 -12 16 -15 14 -5 15 -4 4 9 -14 17 -20 19 -20
6z"/>
<path d="M15850 12840 c0 -5 5 -10 11 -10 5 0 7 5 4 10 -3 6 -8 10 -11 10 -2
0 -4 -4 -4 -10z"/>
<path d="M15965 12830 c10 -11 20 -20 22 -20 2 0 -2 9 -9 20 -7 11 -17 20 -22
20 -5 0 -1 -9 9 -20z"/>
<path d="M11940 12830 c-8 -5 -10 -10 -3 -10 6 0 9 -8 6 -19 -6 -22 12 -37 23
-20 5 8 3 9 -6 4 -9 -6 -11 0 -5 24 7 34 7 35 -15 21z"/>
<path d="M15505 12800 c10 -11 20 -20 23 -20 3 0 -3 9 -13 20 -10 11 -20 20
-23 20 -3 0 3 -9 13 -20z"/>
<path d="M15870 12796 c0 -2 7 -7 16 -10 8 -3 12 -2 9 4 -6 10 -25 14 -25 6z"/>
<path d="M15926 12786 c3 -8 13 -17 22 -21 13 -5 13 -2 -3 15 -21 24 -26 25
-19 6z"/>
<path d="M15556 12768 c3 -5 10 -6 15 -3 13 9 11 12 -6 12 -8 0 -12 -4 -9 -9z"/>
<path d="M15730 12773 c0 -5 6 -15 12 -21 10 -10 10 -14 0 -21 -10 -6 -10 -11
3 -21 11 -10 19 -10 27 -2 8 8 4 19 -16 42 -14 17 -26 28 -26 23z m40 -53 c0
-5 -2 -10 -4 -10 -3 0 -8 5 -11 10 -3 6 -1 10 4 10 6 0 11 -4 11 -10z"/>
<path d="M15860 12770 c0 -5 5 -10 11 -10 5 0 7 5 4 10 -3 6 -8 10 -11 10 -2
0 -4 -4 -4 -10z"/>
<path d="M11975 12760 c-3 -5 -1 -10 4 -10 6 0 11 5 11 10 0 6 -2 10 -4 10 -3
0 -8 -4 -11 -10z"/>
<path d="M15626 12755 c4 -8 11 -15 16 -15 6 0 5 6 -2 15 -7 8 -14 15 -16 15
-2 0 -1 -7 2 -15z"/>
<path d="M15780 12755 c0 -8 4 -15 10 -15 5 0 7 7 4 15 -4 8 -8 15 -10 15 -2
0 -4 -7 -4 -15z"/>
<path d="M11936 12745 c4 -8 10 -12 15 -9 11 6 2 24 -11 24 -5 0 -7 -7 -4 -15z"/>
<path d="M15582 12751 c-10 -6 -10 -10 3 -21 13 -11 14 -10 9 5 -6 14 -4 16 6
10 9 -5 11 -4 6 3 -8 14 -7 14 -24 3z"/>
<path d="M11810 12706 c0 -9 5 -16 10 -16 6 0 10 4 10 9 0 6 -4 13 -10 16 -5
3 -10 -1 -10 -9z"/>
<path d="M11843 12706 c-3 -6 -3 -8 2 -4 4 4 16 3 25 -2 13 -7 19 -6 23 3 6
16 -41 19 -50 3z"/>
<path d="M11906 12695 c-15 -23 -15 -25 0 -25 16 0 15 -2 -1 -20 -10 -11 -15
-20 -10 -20 16 0 34 35 24 46 -6 8 -4 17 6 28 9 9 12 16 7 16 -5 0 -17 -11
-26 -25z"/>
<path d="M12026 12711 c-3 -5 1 -12 10 -15 22 -8 25 -4 9 11 -8 7 -16 9 -19 4z"/>
<path d="M12110 12705 c16 -19 8 -27 -25 -27 -20 0 -23 -3 -14 -14 9 -11 8
-14 -1 -14 -8 0 -10 -3 -6 -7 4 -5 14 0 21 11 13 17 15 17 31 2 9 -9 19 -14
22 -11 3 3 0 11 -6 17 -10 10 -7 15 10 25 l23 12 -22 1 c-13 0 -23 5 -23 10 0
6 -5 10 -11 10 -8 0 -7 -5 1 -15z"/>
<path d="M11986 12693 c-6 -14 -5 -15 5 -6 7 7 10 15 7 18 -3 3 -9 -2 -12 -12z"/>
<path d="M12170 12700 c0 -6 7 -10 15 -10 8 0 15 2 15 4 0 2 -7 6 -15 10 -8 3
-15 1 -15 -4z"/>
<path d="M15623 12693 c-3 -10 -8 -21 -10 -25 -2 -4 1 -9 6 -12 5 -3 11 8 13
24 5 33 1 39 -9 13z"/>
<path d="M11938 12693 c6 -2 10 -8 8 -12 -3 -4 1 -8 9 -8 8 0 15 4 15 8 0 7
-26 20 -38 18 -4 0 -1 -3 6 -6z"/>
<path d="M11848 12678 c5 -5 16 -8 23 -6 8 3 3 7 -10 11 -17 4 -21 3 -13 -5z"/>
<path d="M12021 12673 c7 -10 15 -20 16 -22 2 -2 3 3 3 11 0 9 -7 19 -16 22
-15 6 -15 4 -3 -11z"/>
<path d="M15657 12676 c-17 -13 -17 -14 1 -18 12 -4 18 1 18 13 0 11 0 19 -1
19 0 0 -8 -7 -18 -14z"/>
<path d="M12150 12670 c0 -6 5 -8 10 -5 6 3 11 1 11 -4 1 -6 2 -15 3 -20 0 -5
5 -13 10 -18 5 -5 7 1 3 15 -3 12 -2 20 2 18 4 -3 13 -1 21 5 12 7 10 9 -7 9
-12 0 -28 3 -37 6 -9 3 -16 1 -16 -6z"/>
<path d="M12230 12660 c0 -5 5 -10 11 -10 5 0 7 5 4 10 -3 6 -8 10 -11 10 -2
0 -4 -4 -4 -10z"/>
<path d="M11825 12640 c-3 -6 1 -7 10 -4 11 5 14 2 9 -12 -5 -15 -4 -16 4 -4
11 15 7 30 -8 30 -5 0 -12 -4 -15 -10z"/>
<path d="M12083 12635 c-8 -9 -9 -16 -3 -20 6 -3 10 -2 10 4 0 6 15 7 35 4 30
-5 35 -3 34 13 0 11 -3 14 -6 7 -6 -15 -43 -17 -43 -3 0 14 -13 12 -27 -5z"/>
<path d="M11880 12611 c0 -10 19 -25 25 -20 1 2 -3 10 -11 17 -8 7 -14 8 -14
3z"/>
<path d="M12417 12598 c2 -5 10 -8 18 -8 8 0 16 3 18 8 3 4 -5 7 -18 7 -13 0
-21 -3 -18 -7z"/>
<path d="M12021 12581 c-11 -7 -11 -9 0 -14 11 -4 12 -7 1 -15 -10 -7 -10 -11
3 -22 13 -11 15 -10 10 2 -4 9 0 18 9 21 12 5 14 -1 11 -24 -2 -16 0 -27 5
-24 5 3 6 13 3 21 -5 14 -3 15 18 4 l24 -13 -24 26 c-13 14 -29 25 -35 24 -6
-1 -10 4 -8 11 2 14 1 14 -17 3z"/>
<path d="M16445 12560 c-3 -5 -12 -7 -20 -3 -11 3 -13 1 -9 -10 8 -22 44 -17
44 5 0 20 -6 23 -15 8z"/>
<path d="M11960 12545 c-9 -10 -9 -15 -1 -15 6 0 11 5 11 11 0 5 5 7 12 3 7
-4 8 -3 4 4 -9 15 -11 15 -26 -3z"/>
<path d="M11770 12540 c0 -5 5 -10 11 -10 5 0 7 5 4 10 -3 6 -8 10 -11 10 -2
0 -4 -4 -4 -10z"/>
<path d="M11915 12540 c3 -5 8 -10 11 -10 2 0 4 5 4 10 0 6 -5 10 -11 10 -5 0
-7 -4 -4 -10z"/>
<path d="M16350 12540 c0 -5 5 -10 11 -10 5 0 7 5 4 10 -3 6 -8 10 -11 10 -2
0 -4 -4 -4 -10z"/>
<path d="M12005 12510 c3 -5 11 -10 16 -10 6 0 7 5 4 10 -3 6 -11 10 -16 10
-6 0 -7 -4 -4 -10z"/>
<path d="M16361 12511 c-10 -7 -7 -9 12 -8 14 1 23 5 20 10 -6 9 -15 9 -32 -2z"/>
<path d="M16550 12512 c0 -4 9 -13 20 -20 19 -12 20 -11 8 8 -13 20 -28 27
-28 12z"/>
<path d="M11986 12476 c7 -19 20 -21 30 -3 4 6 4 9 -1 5 -4 -4 -14 -3 -22 4
-11 8 -12 7 -7 -6z"/>
<path d="M16530 12400 c14 -27 29 -40 45 -40 6 0 3 5 -5 10 -8 5 -10 10 -5 11
32 4 41 3 47 -6 4 -5 10 -6 15 -2 11 12 -18 27 -49 25 -14 -1 -34 4 -44 12
-16 14 -16 13 -4 -10z"/>
<path d="M11335 12390 c-3 -5 -1 -10 4 -10 6 0 11 5 11 10 0 6 -2 10 -4 10 -3
0 -8 -4 -11 -10z"/>
<path d="M16210 12380 c0 -5 5 -10 11 -10 5 0 7 5 4 10 -3 6 -8 10 -11 10 -2
0 -4 -4 -4 -10z"/>
<path d="M11404 12348 c3 -10 1 -20 -5 -23 -11 -8 14 -35 32 -35 7 0 5 6 -6
13 -10 8 -15 18 -12 23 3 6 1 16 -5 24 -8 12 -9 12 -4 -2z"/>
<path d="M16540 12351 c0 -5 5 -13 10 -16 6 -3 10 -2 10 4 0 5 -4 13 -10 16
-5 3 -10 2 -10 -4z"/>
<path d="M16570 12346 c0 -2 8 -10 18 -17 15 -13 16 -12 3 4 -13 16 -21 21
-21 13z"/>
<path d="M16535 12310 c3 -5 8 -10 11 -10 2 0 4 5 4 10 0 6 -5 10 -11 10 -5 0
-7 -4 -4 -10z"/>
<path d="M11370 12290 c0 -5 7 -10 15 -10 8 0 15 5 15 10 0 6 -7 10 -15 10 -8
0 -15 -4 -15 -10z"/>
<path d="M11469 12269 c-8 -5 -10 -9 -5 -9 5 0 3 -7 -4 -15 -8 -9 -8 -15 -2
-15 6 0 14 9 17 21 7 19 7 20 21 2 12 -16 13 -16 14 -2 0 21 -22 30 -41 18z"/>
<path d="M11430 12254 c0 -8 5 -12 10 -9 6 3 10 10 10 16 0 5 -4 9 -10 9 -5 0
-10 -7 -10 -16z"/>
<path d="M16379 12240 c-4 -25 -3 -30 6 -27 11 3 15 37 3 37 -4 0 -9 -4 -9
-10z"/>
<path d="M16310 12230 c0 -5 5 -10 11 -10 5 0 7 5 4 10 -3 6 -8 10 -11 10 -2
0 -4 -4 -4 -10z"/>
<path d="M11487 12224 c-8 -8 3 -34 15 -34 7 0 6 5 -1 13 -6 8 -8 17 -4 20 3
4 4 7 1 7 -2 0 -7 -3 -11 -6z"/>
<path d="M16410 12220 c0 -5 5 -10 11 -10 5 0 7 5 4 10 -3 6 -8 10 -11 10 -2
0 -4 -4 -4 -10z"/>
<path d="M11350 12189 c0 -5 5 -7 10 -4 6 3 10 8 10 11 0 2 -4 4 -10 4 -5 0
-10 -5 -10 -11z"/>
<path d="M16367 12184 c3 -7 9 -14 15 -14 5 0 6 -5 2 -12 -4 -7 -3 -8 4 -4 14
8 5 33 -13 40 -9 3 -12 0 -8 -10z"/>
<path d="M11305 12180 c3 -5 12 -7 20 -3 21 7 19 13 -6 13 -11 0 -18 -4 -14
-10z"/>
<path d="M11380 12179 c0 -5 5 -7 10 -4 6 3 10 8 10 11 0 2 -4 4 -10 4 -5 0
-10 -5 -10 -11z"/>
<path d="M11410 12180 c0 -5 7 -7 15 -4 8 4 15 8 15 10 0 2 -7 4 -15 4 -8 0
-15 -4 -15 -10z"/>
<path d="M11600 12170 c-8 -5 -10 -10 -5 -10 6 0 17 5 25 10 8 5 11 10 5 10
-5 0 -17 -5 -25 -10z"/>
<path d="M11647 12169 c7 -7 15 -10 18 -7 3 3 -2 9 -12 12 -14 6 -15 5 -6 -5z"/>
<path d="M17005 12170 c3 -5 8 -10 11 -10 2 0 4 5 4 10 0 6 -5 10 -11 10 -5 0
-7 -4 -4 -10z"/>
<path d="M11325 12160 c-19 -8 -19 -9 2 -9 12 -1 25 4 28 9 7 12 -2 12 -30 0z"/>
<path d="M11533 12147 c0 -20 4 -23 28 -19 16 2 29 9 29 14 0 5 -9 7 -19 3
-11 -3 -23 0 -27 6 -5 9 -2 10 9 6 9 -3 18 -3 21 1 2 4 -6 9 -18 10 -18 1 -23
-4 -23 -21z"/>
<path d="M11450 12139 c0 -5 5 -7 10 -4 6 3 10 8 10 11 0 2 -4 4 -10 4 -5 0
-10 -5 -10 -11z"/>
<path d="M11670 12139 c0 -5 5 -7 10 -4 6 3 10 8 10 11 0 2 -4 4 -10 4 -5 0
-10 -5 -10 -11z"/>
<path d="M11696 12130 c-10 -11 -22 -18 -25 -15 -4 2 -13 -1 -21 -6 -11 -7 -8
-8 12 -5 15 3 29 -1 31 -7 2 -7 8 -8 13 -4 5 4 2 12 -6 17 -13 9 -13 10 0 11
8 1 18 1 22 0 4 0 5 6 2 14 -4 8 -7 15 -8 14 0 0 -10 -9 -20 -19z"/>
<path d="M17030 12123 c13 -9 34 -18 46 -19 21 -2 22 -1 6 17 -17 20 -38 27
-27 9 3 -5 2 -10 -4 -10 -5 0 -13 5 -16 10 -3 6 -11 10 -18 10 -6 0 -1 -8 13
-17z"/>
<path d="M16355 12120 c3 -5 11 -10 16 -10 6 0 7 5 4 10 -3 6 -11 10 -16 10
-6 0 -7 -4 -4 -10z"/>
<path d="M11346 12105 c4 -8 8 -15 10 -15 2 0 4 7 4 15 0 8 -4 15 -10 15 -5 0
-7 -7 -4 -15z"/>
<path d="M11473 12103 c-12 -8 -19 -21 -16 -29 6 -17 26 -19 20 -1 -2 6 3 17
12 24 24 17 9 23 -16 6z"/>
<path d="M17045 12090 c22 -11 46 -20 53 -20 14 0 12 -21 -3 -32 -6 -5 -5 -8
2 -8 17 0 33 33 23 49 -4 8 -13 10 -19 7 -6 -4 -17 -4 -23 1 -7 4 -17 8 -23 9
-5 1 -19 5 -30 8 -11 4 -2 -3 20 -14z"/>
<path d="M11148 12056 c4 -15 7 -17 10 -6 3 8 10 18 16 22 6 4 1 6 -10 6 -16
-2 -20 -7 -16 -22z"/>
<path d="M17016 12072 c-3 -4 4 -9 15 -9 23 -2 25 3 4 10 -8 4 -16 3 -19 -1z"/>
<path d="M11382 12045 c-6 -14 -8 -24 -4 -24 20 3 23 -3 11 -18 -13 -16 -12
-17 4 -4 12 10 14 17 7 26 -6 7 -8 20 -4 29 10 26 -2 19 -14 -9z"/>
<path d="M11435 12060 c-3 -5 -1 -10 4 -10 6 0 11 5 11 10 0 6 -2 10 -4 10 -3
0 -8 -4 -11 -10z"/>
<path d="M11030 12042 c0 -5 7 -9 15 -9 8 0 15 4 15 9 0 4 -7 8 -15 8 -8 0
-15 -4 -15 -8z"/>
<path d="M17130 12043 c0 -5 5 -15 10 -23 7 -12 9 -10 7 8 -1 19 -17 33 -17
15z"/>
<path d="M11075 12019 c-9 -14 -2 -20 14 -10 8 6 9 11 3 15 -6 3 -14 1 -17 -5z"/>
<path d="M11487 11986 c-7 -18 18 -42 28 -26 3 5 -1 10 -9 10 -10 0 -13 6 -10
15 4 8 4 15 1 15 -3 0 -7 -6 -10 -14z"/>
<path d="M11046 11981 c-4 -5 -2 -12 3 -15 5 -4 12 -2 15 3 4 5 2 12 -3 15 -5
4 -12 2 -15 -3z"/>
<path d="M11453 11965 c0 -8 4 -15 9 -15 4 0 8 4 8 9 0 6 -4 12 -8 15 -5 3 -9
-1 -9 -9z"/>
<path d="M10935 11950 c3 -6 -1 -13 -9 -16 -9 -3 -16 -11 -16 -18 0 -6 -9 -18
-20 -26 -26 -18 -25 -27 3 -51 25 -21 37 -24 37 -9 0 6 -7 10 -17 10 -24 0 -7
13 19 15 12 1 24 7 26 15 3 7 0 10 -7 6 -6 -4 -11 -3 -11 3 0 5 6 12 13 14 9
4 8 8 -3 16 -12 9 -13 14 -2 31 10 17 10 20 -4 20 -8 0 -12 -5 -9 -10z m-11
-69 c3 -5 -3 -11 -14 -14 -20 -5 -26 3 -13 16 9 10 21 9 27 -2z"/>
<path d="M11160 11950 c-9 -6 -10 -10 -3 -10 6 0 15 5 18 10 8 12 4 12 -15 0z"/>
<path d="M11530 11942 c0 -5 7 -9 15 -9 8 0 12 4 9 9 -3 4 -9 8 -15 8 -5 0 -9
-4 -9 -8z"/>
<path d="M11165 11920 c-3 -5 -1 -10 4 -10 6 0 11 5 11 10 0 6 -2 10 -4 10 -3
0 -8 -4 -11 -10z"/>
<path d="M11498 11923 c7 -3 16 -2 19 1 4 3 -2 6 -13 5 -11 0 -14 -3 -6 -6z"/>
<path d="M11565 11920 c-8 -13 -1 -24 14 -19 6 3 7 10 2 18 -6 10 -10 10 -16
1z"/>
<path d="M11045 11909 c-4 -6 -5 -12 -2 -15 2 -3 7 2 10 11 7 17 1 20 -8 4z"/>
<path d="M11120 11910 c0 -5 7 -7 15 -4 8 4 15 8 15 10 0 2 -7 4 -15 4 -8 0
-15 -4 -15 -10z"/>
<path d="M11227 11909 c7 -7 15 -10 18 -7 3 3 -2 9 -12 12 -14 6 -15 5 -6 -5z"/>
<path d="M17192 11906 c7 -8 15 -12 17 -11 5 6 -10 25 -20 25 -5 0 -4 -6 3
-14z"/>
<path d="M11097 11887 c-5 -14 17 -19 43 -10 25 10 50 10 50 1 0 -4 8 -8 17
-8 15 0 15 2 -2 13 -24 16 -62 19 -71 6 -4 -6 -10 -6 -19 1 -9 8 -14 7 -18 -3z"/>
<path d="M11440 11886 l-25 -14 26 1 c14 1 26 8 26 15 0 6 -1 12 -1 12 -1 -1
-12 -7 -26 -14z"/>
<path d="M11235 11880 c-2 -3 7 -7 20 -8 13 -1 26 2 29 7 3 5 -6 8 -20 7 -14
0 -27 -3 -29 -6z"/>
<path d="M11545 11880 c-19 -8 -19 -9 3 -9 12 -1 22 4 22 9 0 6 -1 10 -2 9 -2
0 -12 -4 -23 -9z"/>
<path d="M16975 11871 c-3 -5 -2 -12 3 -15 5 -3 9 1 9 9 0 17 -3 19 -12 6z"/>
<path d="M11164 11849 c-3 -6 -2 -15 3 -20 5 -5 9 -1 9 11 0 23 -2 24 -12 9z"/>
<path d="M11227 11853 c-12 -12 -7 -22 8 -17 8 4 15 10 15 15 0 11 -14 12 -23
2z"/>
<path d="M11285 11850 c-3 -5 -1 -10 4 -10 6 0 11 5 11 10 0 6 -2 10 -4 10 -3
0 -8 -4 -11 -10z"/>
<path d="M11400 11850 c-9 -6 -10 -10 -3 -10 6 0 15 5 18 10 8 12 4 12 -15 0z"/>
<path d="M11457 11843 c3 -7 6 -13 8 -13 2 0 5 6 8 13 3 8 -1 14 -8 14 -7 0
-11 -6 -8 -14z"/>
<path d="M11343 11831 c0 -11 5 -18 9 -15 4 3 5 11 1 19 -7 21 -12 19 -10 -4z"/>
<path d="M11188 11808 c-10 -10 -14 -18 -9 -18 10 0 36 29 30 34 -2 1 -12 -6
-21 -16z"/>
<path d="M11500 11820 c0 -5 5 -10 11 -10 5 0 7 5 4 10 -3 6 -8 10 -11 10 -2
0 -4 -4 -4 -10z"/>
<path d="M11130 11809 c0 -5 5 -7 10 -4 6 3 10 8 10 11 0 2 -4 4 -10 4 -5 0
-10 -5 -10 -11z"/>
<path d="M11225 11803 c-19 -15 -19 -15 3 -8 16 5 22 2 22 -9 0 -9 4 -16 8
-16 12 0 9 39 -3 44 -6 2 -20 -3 -30 -11z"/>
<path d="M16993 11813 c-17 -6 -17 -23 0 -23 8 0 14 7 14 15 0 8 -1 15 -1 14
-1 0 -7 -3 -13 -6z"/>
<path d="M11097 11796 c-4 -10 -1 -13 8 -9 8 3 12 9 9 14 -7 12 -11 11 -17 -5z"/>
<path d="M11370 11800 c0 -5 5 -10 10 -10 6 0 10 5 10 10 0 6 -4 10 -10 10 -5
0 -10 -4 -10 -10z"/>
<path d="M17023 11792 c0 -12 3 -19 6 -17 2 3 11 -1 20 -7 10 -8 8 -3 -4 12
-11 14 -21 27 -22 29 -1 2 -1 -6 0 -17z"/>
<path d="M17120 11800 c-9 -6 -10 -10 -3 -10 6 0 15 5 18 10 8 12 4 12 -15 0z"/>
<path d="M16877 11789 c7 -7 15 -10 18 -7 3 3 -2 9 -12 12 -14 6 -15 5 -6 -5z"/>
<path d="M11118 11776 c-20 -14 -24 -36 -8 -36 6 0 9 6 8 13 -2 6 2 11 8 10 6
-1 11 5 11 13 0 8 -1 14 -1 14 -1 0 -9 -7 -18 -14z"/>
<path d="M11463 11769 c-2 -23 3 -25 10 -4 4 8 3 16 -1 19 -4 3 -9 -4 -9 -15z"/>
<path d="M11070 11771 c0 -6 4 -13 10 -16 6 -3 7 1 4 9 -7 18 -14 21 -14 7z"/>
<path d="M11210 11769 c0 -5 5 -7 10 -4 6 3 10 8 10 11 0 2 -4 4 -10 4 -5 0
-10 -5 -10 -11z"/>
<path d="M16966 11772 c-3 -4 4 -9 15 -9 23 -2 25 3 4 10 -8 4 -16 3 -19 -1z"/>
<path d="M16876 11761 c-3 -5 1 -11 9 -14 9 -4 12 -1 8 9 -6 16 -10 17 -17 5z"/>
<path d="M11230 11750 c-9 -6 -10 -10 -3 -10 6 0 15 5 18 10 8 12 4 12 -15 0z"/>
<path d="M16846 11743 c-4 -9 -4 -14 0 -10 4 4 14 1 23 -6 14 -11 15 -10 1 8
-8 11 -15 21 -16 23 -1 2 -5 -5 -8 -15z"/>
<path d="M17015 11750 c-4 -6 -1 -9 7 -8 7 2 12 -3 10 -10 -1 -8 2 -11 8 -7 8
5 7 11 -1 21 -14 17 -16 17 -24 4z"/>
<path d="M11147 11743 c-4 -6 0 -13 8 -17 8 -3 17 0 21 6 4 6 3 8 -4 4 -5 -3
-12 -1 -14 6 -3 8 -6 9 -11 1z"/>
<path d="M11195 11740 c-3 -5 -1 -10 4 -10 6 0 11 5 11 10 0 6 -2 10 -4 10 -3
0 -8 -4 -11 -10z"/>
<path d="M11257 11736 c-4 -10 -3 -15 3 -11 6 3 10 1 10 -6 0 -7 3 -10 6 -6 3
3 2 13 -4 22 -8 16 -9 16 -15 1z"/>
<path d="M16960 11740 c-12 -7 -10 -9 7 -7 12 0 19 5 17 9 -6 10 -6 10 -24 -2z"/>
<path d="M11215 11720 c-3 -5 -1 -10 4 -10 6 0 11 5 11 10 0 6 -2 10 -4 10 -3
0 -8 -4 -11 -10z"/>
<path d="M11300 11705 c-7 -9 -10 -18 -6 -22 3 -4 -3 -16 -14 -28 -20 -22 -20
-22 0 -20 11 1 23 5 27 10 5 4 2 5 -4 1 -16 -9 -17 6 -1 22 7 7 9 12 5 12 -4
0 -3 9 3 20 13 24 8 26 -10 5z"/>
<path d="M16860 11690 c0 -5 5 -10 11 -10 5 0 7 5 4 10 -3 6 -8 10 -11 10 -2
0 -4 -4 -4 -10z"/>
<path d="M11110 11671 c0 -6 4 -13 10 -16 6 -3 7 1 4 9 -7 18 -14 21 -14 7z"/>
<path d="M11170 11669 c0 -5 5 -7 10 -4 6 3 10 8 10 11 0 2 -4 4 -10 4 -5 0
-10 -5 -10 -11z"/>
<path d="M11230 11645 c0 -8 2 -15 4 -15 2 0 6 7 10 15 3 8 1 15 -4 15 -6 0
-10 -7 -10 -15z"/>
<path d="M16860 11650 c0 -6 7 -10 15 -10 8 0 15 2 15 4 0 2 -7 6 -15 10 -8 3
-15 1 -15 -4z"/>
<path d="M10690 11579 c0 -5 5 -7 10 -4 6 3 10 8 10 11 0 2 -4 4 -10 4 -5 0
-10 -5 -10 -11z"/>
<path d="M10650 11396 c0 -2 7 -7 16 -10 8 -3 12 -2 9 4 -6 10 -25 14 -25 6z"/>
<path d="M11100 11281 c0 -6 4 -13 10 -16 6 -3 7 1 4 9 -7 18 -14 21 -14 7z"/>
<path d="M10687 11263 c-11 -11 -8 -20 7 -20 8 0 12 6 9 14 -6 15 -7 15 -16 6z"/>
<path d="M11010 11250 c-8 -5 -12 -12 -9 -15 4 -3 12 1 19 10 14 17 11 19 -10
5z"/>
<path d="M10696 11215 c4 -8 11 -15 16 -15 6 0 5 6 -2 15 -7 8 -14 15 -16 15
-2 0 -1 -7 2 -15z"/>
<path d="M10650 11174 c0 -6 9 -15 48 -48 31 -26 28 -16 -6 22 -27 30 -42 39
-42 26z"/>
<path d="M10782 11166 c7 -8 15 -12 17 -11 5 6 -10 25 -20 25 -5 0 -4 -6 3
-14z"/>
<path d="M10730 11105 c-7 -9 -19 -14 -27 -11 -8 3 -11 1 -8 -4 3 -5 22 -8 43
-5 22 3 39 0 44 -8 6 -9 8 -9 8 0 0 13 -27 43 -39 43 -5 0 -14 -7 -21 -15z
m30 1 c0 -3 -4 -8 -10 -11 -5 -3 -10 -1 -10 4 0 6 5 11 10 11 6 0 10 -2 10 -4z"/>
<path d="M10945 11100 c4 -6 11 -8 16 -5 14 9 11 15 -7 15 -8 0 -12 -5 -9 -10z"/>
<path d="M10903 11058 c-1 -11 1 -16 5 -12 4 5 11 12 15 15 5 3 2 9 -5 12 -9
3 -14 -3 -15 -15z"/>
<path d="M10986 11064 c-8 -20 0 -32 14 -18 5 5 5 15 1 22 -6 11 -10 10 -15
-4z"/>
<path d="M10740 11051 c0 -6 4 -13 10 -16 6 -3 7 1 4 9 -7 18 -14 21 -14 7z"/>
<path d="M10730 10936 c0 -2 8 -10 18 -17 15 -13 16 -12 3 4 -13 16 -21 21
-21 13z"/>
<path d="M10777 10922 c2 -10 11 -19 19 -19 11 0 11 4 -3 19 -9 10 -17 18 -19
18 -1 0 0 -8 3 -18z"/>
<path d="M10714 10908 c-4 -7 -4 -10 1 -6 4 4 15 2 24 -5 14 -11 14 -10 2 6
-16 20 -18 21 -27 5z"/>
<path d="M10805 10740 c-16 -7 -17 -9 -3 -9 9 -1 20 4 23 9 7 11 7 11 -20 0z"/>
<path d="M10326 10688 c3 -5 10 -6 15 -3 13 9 11 12 -6 12 -8 0 -12 -4 -9 -9z"/>
<path d="M10806 10658 c3 -4 11 -5 19 -1 21 7 19 12 -4 10 -11 0 -18 -5 -15
-9z"/>
<path d="M10380 10636 c0 -2 8 -10 18 -17 15 -13 16 -12 3 4 -13 16 -21 21
-21 13z"/>
<path d="M10329 10628 c-7 -26 -3 -45 8 -41 15 6 17 29 3 38 -5 3 -10 5 -11 3z"/>
<path d="M10400 10530 c-8 -5 -13 -10 -10 -11 33 -6 47 -4 43 8 -6 15 -13 16
-33 3z"/>
<path d="M10460 10530 c8 -5 20 -10 25 -10 6 0 3 5 -5 10 -8 5 -19 10 -25 10
-5 0 -3 -5 5 -10z"/>
<path d="M10604 10504 c-18 -15 -18 -15 2 -5 12 6 25 7 29 3 5 -4 5 -1 1 6 -9
15 -8 15 -32 -4z"/>
<path d="M10542 10482 c9 -10 13 -11 16 -3 3 9 8 9 20 -1 14 -10 15 -10 5 2
-7 7 -22 14 -33 15 -16 1 -17 -1 -8 -13z"/>
<path d="M10627 10479 c7 -7 15 -10 18 -7 3 3 -2 9 -12 12 -14 6 -15 5 -6 -5z"/>
<path d="M10373 10425 c1 -23 5 -31 15 -28 8 3 13 0 12 -8 -5 -30 0 -41 15
-35 17 6 20 -5 5 -20 -8 -8 -6 -15 4 -23 10 -8 16 -9 21 -1 3 5 -2 10 -11 10
-14 0 -15 3 -6 12 16 16 55 -31 40 -49 -6 -7 -7 -13 -4 -13 4 0 2 -8 -3 -18
-6 -11 -6 -24 0 -33 7 -12 9 -12 10 1 1 8 1 21 0 27 -1 8 5 10 16 7 14 -4 15
-4 4 4 -8 6 -9 12 -3 16 16 9 24 -25 10 -43 -10 -13 -10 -14 2 -3 21 18 28 15
25 -11 -2 -13 2 -24 9 -24 6 0 20 -4 31 -8 12 -4 9 1 -7 11 -28 19 -36 34 -19
34 6 0 12 -4 16 -10 10 -16 30 -1 31 25 2 20 -2 24 -20 21 -11 -3 -23 -5 -25
-5 -3 -1 4 -8 15 -17 18 -15 18 -15 -3 -5 -15 8 -20 17 -16 31 3 12 0 20 -6
20 -7 0 -9 -5 -5 -12 5 -8 0 -7 -12 2 -27 21 -34 33 -29 48 3 7 1 11 -4 7 -14
-8 -73 55 -67 71 4 9 -2 14 -17 14 -13 0 -17 3 -11 8 9 5 8 10 -1 19 -10 9
-12 5 -12 -22z"/>
<path d="M10590 10456 c0 -2 8 -10 18 -17 15 -13 16 -12 3 4 -13 16 -21 21
-21 13z"/>
<path d="M10627 10449 c6 -6 9 -18 6 -25 -4 -10 0 -12 11 -8 16 6 16 8 0 25
-9 11 -20 19 -23 19 -3 0 0 -5 6 -11z"/>
<path d="M10365 10370 c11 -17 -5 -32 -20 -20 -11 9 -14 7 -12 -9 1 -12 7 -21
14 -21 8 0 16 -7 19 -15 4 -8 11 -15 17 -15 5 0 3 8 -6 18 -23 25 -21 39 2 18
17 -16 18 -15 16 6 -4 35 -4 35 -21 42 -8 3 -12 2 -9 -4z"/>
<path d="M10296 10298 c3 -5 10 -6 15 -3 13 9 11 12 -6 12 -8 0 -12 -4 -9 -9z"/>
<path d="M10341 10299 c0 -8 14 -25 32 -38 l32 -25 -30 35 c-16 18 -31 36 -32
38 -2 2 -3 -2 -2 -10z"/>
<path d="M10445 10300 c-4 -6 -13 -9 -20 -6 -8 3 -19 -3 -27 -12 -12 -16 -11
-16 6 -2 18 14 19 13 13 -3 -4 -11 -3 -16 3 -12 14 9 12 -9 -2 -23 -7 -7 -8
-12 -2 -12 5 0 2 -5 -6 -11 -10 -7 -11 -9 -2 -7 8 2 13 8 13 13 0 6 7 17 15
26 8 9 11 19 7 23 -4 4 -1 11 7 16 8 5 12 12 8 15 -3 4 -9 1 -13 -5z"/>
<path d="M10565 10160 c-3 -6 1 -7 9 -4 18 7 21 14 7 14 -6 0 -13 -4 -16 -10z"/>
<path d="M10175 10140 c-3 -5 -1 -10 4 -10 6 0 11 5 11 10 0 6 -2 10 -4 10 -3
0 -8 -4 -11 -10z"/>
<path d="M10158 9993 c6 -2 12 -15 12 -27 0 -12 -6 -28 -12 -35 -8 -9 -8 -11
-2 -8 16 9 26 -20 11 -30 -7 -4 -15 -8 -19 -8 -3 0 -9 -3 -12 -6 -3 -3 9 -5
27 -5 30 1 33 3 29 28 -2 16 -9 28 -16 28 -6 0 -5 4 3 9 19 12 6 61 -17 60
-10 0 -12 -3 -4 -6z"/>
<path d="M10830 9876 c0 -2 7 -6 15 -10 8 -3 15 -1 15 4 0 6 -7 10 -15 10 -8
0 -15 -2 -15 -4z"/>
<path d="M10172 9855 c2 -15 -2 -20 -19 -19 -13 1 -23 -4 -24 -10 -4 -71 -3
-160 3 -169 5 -8 8 -6 8 6 0 10 5 15 10 12 6 -3 10 -1 10 4 0 6 -4 11 -9 11
-13 0 -9 40 4 41 5 1 16 2 24 3 8 0 16 7 19 15 2 8 0 11 -5 8 -6 -4 -8 4 -6
21 7 43 4 75 -8 87 -8 7 -10 4 -7 -10z m-9 -55 c3 -11 1 -20 -4 -20 -4 0 -6
-8 -2 -17 3 -10 3 -15 -2 -11 -10 9 -15 68 -5 68 4 0 10 -9 13 -20z"/>
<path d="M10130 9856 c0 -2 9 -6 20 -9 11 -3 18 -1 14 4 -5 9 -34 13 -34 5z"/>
<path d="M10975 9821 c-11 -5 -25 -6 -32 -4 -7 3 -11 -4 -10 -16 1 -12 7 -21
14 -21 7 0 12 3 12 8 -3 19 2 23 16 12 12 -10 15 -10 15 0 0 9 4 9 17 -1 15
-13 15 -12 4 9 -6 12 -13 22 -14 21 -1 0 -11 -4 -22 -8z"/>
<path d="M11035 9799 c4 -6 14 -8 22 -5 11 4 13 2 9 -9 -3 -8 -1 -15 3 -15 11
0 23 30 13 31 -4 0 -17 2 -30 5 -15 3 -21 0 -17 -7z"/>
<path d="M10847 9759 c7 -7 15 -10 18 -7 3 3 -2 9 -12 12 -14 6 -15 5 -6 -5z"/>
<path d="M10999 9753 c-13 -15 -11 -16 14 -11 27 5 38 -6 15 -15 -8 -4 -9 -6
-2 -6 6 -1 17 6 24 14 13 16 5 20 -29 16 -7 -2 -10 2 -6 8 10 17 -1 13 -16 -6z"/>
<path d="M10933 9745 c0 -8 4 -12 9 -9 5 3 6 10 3 15 -9 13 -12 11 -12 -6z"/>
<path d="M10826 9728 c3 -5 10 -6 15 -3 13 9 11 12 -6 12 -8 0 -12 -4 -9 -9z"/>
<path d="M10695 9689 c-4 -6 -5 -12 -2 -15 2 -3 7 2 10 11 7 17 1 20 -8 4z"/>
<path d="M11023 9685 c0 -8 4 -15 9 -15 4 0 8 7 8 15 0 8 -4 15 -8 15 -5 0 -9
-7 -9 -15z"/>
<path d="M10175 9680 c3 -5 8 -10 11 -10 2 0 4 5 4 10 0 6 -5 10 -11 10 -5 0
-7 -4 -4 -10z"/>
<path d="M10420 9676 c0 -2 8 -10 18 -17 15 -13 16 -12 3 4 -13 16 -21 21 -21
13z"/>
<path d="M10820 9660 c-8 -5 -10 -10 -5 -10 6 0 17 5 25 10 8 5 11 10 5 10 -5
0 -17 -5 -25 -10z"/>
<path d="M10573 9640 c-21 -25 -34 -26 -27 -2 5 14 4 15 -5 2 -16 -23 -13 -33
9 -27 12 3 28 -2 37 -11 15 -15 16 -15 11 -1 -4 11 0 15 15 14 12 -1 25 3 29
9 5 7 8 7 8 -2 0 -8 -9 -16 -21 -19 -16 -4 -18 -8 -7 -14 11 -7 10 -11 -2 -18
-8 -5 -17 -8 -20 -6 -3 2 -7 -8 -8 -21 -1 -15 2 -22 8 -19 6 3 10 1 10 -4 0
-14 -17 -14 -25 -1 -9 14 -24 12 -21 -2 3 -21 16 -38 29 -38 7 0 6 4 -3 10
-13 8 -13 10 1 10 20 0 33 -27 16 -33 -8 -2 -8 -5 1 -11 7 -4 12 -3 12 3 0 6
8 7 18 4 16 -7 16 -6 0 11 -22 22 -24 61 -4 53 10 -4 14 0 11 14 -4 17 6 24
28 20 5 -1 6 3 2 8 -3 6 -12 8 -20 4 -8 -3 -15 0 -15 6 0 6 4 11 9 11 4 0 8
10 7 23 -1 16 -7 21 -21 19 -11 -2 -24 -5 -30 -5 -5 -1 -9 6 -9 16 2 22 -2 22
-23 -3z m62 -90 c3 -5 -3 -10 -15 -10 -12 0 -18 5 -15 10 3 6 10 10 15 10 5 0
12 -4 15 -10z"/>
<path d="M10173 9635 c0 -8 4 -15 9 -15 4 0 8 4 8 9 0 6 -4 12 -8 15 -5 3 -9
-1 -9 -9z"/>
<path d="M10505 9639 c7 -10 -21 -30 -30 -21 -5 4 -5 2 -1 -5 8 -15 28 -8 43
16 9 14 8 18 -3 18 -7 0 -11 -4 -9 -8z"/>
<path d="M10119 9623 c-10 -11 -10 -14 -1 -9 6 4 12 2 12 -3 0 -6 4 -11 8 -11
4 0 8 9 8 20 0 24 -9 25 -27 3z"/>
<path d="M10710 9630 c-9 -6 -10 -10 -3 -10 6 0 15 5 18 10 8 12 4 12 -15 0z"/>
<path d="M10330 9621 c0 -5 5 -13 10 -16 6 -3 10 -2 10 4 0 5 -4 13 -10 16 -5
3 -10 2 -10 -4z"/>
<path d="M10416 9622 c-3 -6 0 -13 6 -15 10 -4 9 -8 -2 -16 -13 -9 -12 -11 5
-11 17 0 18 -2 5 -11 -13 -9 -13 -10 0 -6 9 2 14 13 12 28 -4 29 -17 45 -26
31z"/>
<path d="M10670 9620 c0 -5 5 -10 11 -10 5 0 7 5 4 10 -3 6 -8 10 -11 10 -2 0
-4 -4 -4 -10z"/>
<path d="M10377 9597 c4 -6 8 -16 8 -21 0 -5 6 -10 13 -12 7 -1 8 0 3 2 -6 3
-8 11 -5 18 3 8 -2 16 -11 20 -11 4 -14 2 -8 -7z"/>
<path d="M10685 9600 c-19 -8 -19 -9 -1 -9 11 -1 16 -4 13 -8 -4 -3 1 -12 11
-20 16 -14 16 -14 0 -9 -10 3 -18 1 -18 -4 0 -6 6 -10 14 -10 8 0 16 -6 19
-12 3 -7 4 4 3 24 -2 45 -14 59 -41 48z"/>
<path d="M10536 9588 c3 -4 11 -5 19 -1 21 7 19 12 -4 10 -11 0 -18 -5 -15 -9z"/>
<path d="M10790 9589 c0 -5 5 -7 10 -4 6 3 10 8 10 11 0 2 -4 4 -10 4 -5 0
-10 -5 -10 -11z"/>
<path d="M10480 9573 c0 -11 43 -43 49 -37 3 4 0 9 -7 11 -6 3 -10 8 -7 13 3
4 -4 10 -15 13 -11 3 -20 3 -20 0z"/>
<path d="M10464 9534 c3 -9 6 -18 6 -20 0 -2 8 -4 18 -4 15 1 15 2 -2 11 -15
9 -16 13 -5 20 11 7 10 9 -5 9 -12 0 -16 -5 -12 -16z"/>
<path d="M10558 9543 c7 -3 16 -2 19 1 4 3 -2 6 -13 5 -11 0 -14 -3 -6 -6z"/>
<path d="M10663 9535 c0 -8 4 -15 9 -15 4 0 8 7 8 15 0 8 -4 15 -8 15 -5 0 -9
-7 -9 -15z"/>
<path d="M10319 9520 c10 -18 3 -42 -10 -34 -5 3 -9 0 -9 -5 0 -6 5 -11 11
-11 6 0 8 -8 5 -17 -5 -16 -4 -16 8 1 8 10 19 15 25 11 16 -9 31 3 24 21 -3 9
-13 14 -23 11 -19 -5 -24 23 -6 35 6 4 1 6 -11 5 -16 -1 -19 -5 -14 -17z"/>
<path d="M10745 9530 c3 -5 8 -10 11 -10 2 0 4 5 4 10 0 6 -5 10 -11 10 -5 0
-7 -4 -4 -10z"/>
<path d="M10173 9515 c0 -8 4 -12 9 -9 4 3 8 9 8 15 0 5 -4 9 -8 9 -5 0 -9 -7
-9 -15z"/>
<path d="M10355 9520 c-4 -6 3 -10 14 -10 25 0 27 6 6 13 -8 4 -17 2 -20 -3z"/>
<path d="M10431 9521 c-9 -6 -7 -10 8 -14 12 -3 21 -1 21 3 0 14 -15 19 -29
11z"/>
<path d="M10790 9510 c-9 -6 -10 -10 -3 -10 6 0 15 5 18 10 8 12 4 12 -15 0z"/>
<path d="M10630 9502 c0 -12 46 -32 72 -32 16 0 18 3 9 14 -8 10 -9 16 -1 19
6 3 5 4 -2 3 -7 -2 -12 -9 -10 -15 1 -6 -2 -11 -8 -11 -5 0 -10 7 -10 15 0 9
-9 15 -25 15 -14 0 -25 -4 -25 -8z"/>
<path d="M10415 9490 c3 -5 -1 -10 -9 -10 -9 0 -16 -4 -16 -8 0 -5 14 -9 30
-9 17 0 26 4 19 8 -6 4 -8 12 -5 18 4 6 0 11 -9 11 -9 0 -13 -4 -10 -10z"/>
<path d="M10498 9493 c7 -3 16 -2 19 1 4 3 -2 6 -13 5 -11 0 -14 -3 -6 -6z"/>
<path d="M10178 9485 c-4 -6 -4 -16 0 -21 8 -13 44 -15 36 -2 -3 5 -9 6 -14 3
-5 -3 -10 3 -12 12 -2 11 -6 14 -10 8z"/>
<path d="M10240 9471 c0 -5 5 -13 10 -16 6 -3 10 -2 10 4 0 5 -4 13 -10 16 -5
3 -10 2 -10 -4z"/>
<path d="M10510 9471 c0 -6 7 -8 15 -5 8 4 15 1 15 -5 0 -11 -12 -15 -42 -12
-10 1 -18 -2 -18 -8 0 -6 7 -8 15 -5 10 4 14 1 12 -7 -2 -8 -2 -10 1 -6 2 4
10 3 18 -4 16 -13 28 7 22 38 -3 19 -38 32 -38 14z m30 -41 c0 -5 -2 -10 -4
-10 -3 0 -8 5 -11 10 -3 6 -1 10 4 10 6 0 11 -4 11 -10z"/>
<path d="M10560 9477 c0 -3 16 -23 36 -42 20 -20 34 -38 31 -41 -2 -2 -10 2
-17 11 -7 8 -17 15 -22 15 -6 0 -6 -6 1 -14 10 -12 8 -14 -13 -12 -15 2 -26
-2 -26 -8 0 -8 -2 -8 -8 0 -7 12 -47 12 -58 1 -4 -4 -13 1 -21 11 -8 9 -12 12
-9 5 4 -6 -1 -16 -9 -21 -15 -8 -15 -10 0 -22 13 -11 15 -10 9 4 -3 9 -2 16 4
16 16 0 24 -33 10 -41 -6 -4 -16 -5 -20 -3 -4 3 -5 -2 -2 -10 3 -9 1 -16 -5
-16 -6 0 -11 5 -11 10 0 6 -4 10 -9 10 -5 0 -7 -9 -4 -20 3 -10 10 -18 17 -17
6 1 10 -8 8 -20 -2 -13 1 -23 6 -23 5 0 8 14 6 31 -3 25 -1 29 9 20 8 -6 17
-8 21 -4 4 4 4 0 0 -10 -4 -13 -2 -16 9 -12 11 5 15 -1 15 -21 0 -25 -2 -26
-13 -11 -7 9 -16 17 -20 17 -4 0 -2 -6 4 -14 9 -10 8 -16 -4 -26 -22 -19 -19
-43 5 -37 11 3 23 1 26 -4 3 -6 11 -5 20 2 9 7 14 8 14 1 0 -6 -6 -13 -12 -16
-7 -4 -3 -4 10 -2 12 2 22 0 22 -5 0 -6 8 -5 19 1 26 13 34 13 25 -2 -5 -9 -2
-9 9 1 14 11 17 11 17 0 1 -9 7 -6 19 8 10 12 21 19 25 16 3 -4 6 -1 6 5 0 20
-21 24 -44 9 -17 -12 -26 -13 -35 -4 -8 8 -11 7 -11 -6 0 -9 -5 -17 -11 -17
-6 0 -9 7 -6 14 5 12 -1 14 -28 11 -29 -4 -34 -2 -32 15 1 23 8 25 25 8 10
-10 15 -10 22 2 10 16 3 33 -11 25 -5 -4 -16 -2 -25 3 -11 6 -13 11 -5 16 6 4
11 3 11 -3 0 -5 8 -9 18 -8 13 1 19 9 19 29 0 15 -4 28 -9 28 -17 0 -7 16 11
17 13 1 18 -3 15 -12 -3 -7 -1 -16 5 -20 6 -3 11 -12 11 -18 0 -7 -4 -6 -10 3
-5 8 -11 12 -14 9 -3 -3 5 -16 18 -28 18 -17 26 -19 31 -10 5 8 4 10 -3 5 -9
-5 -11 3 -7 28 5 40 -15 59 -56 51 -13 -3 -27 1 -32 8 -6 8 -6 5 -2 -8 17 -47
17 -55 2 -55 -23 0 -30 18 -10 22 16 3 16 6 -4 23 -17 14 -19 21 -10 27 8 5 7
8 -5 8 -12 0 -15 5 -11 15 5 14 7 14 23 0 9 -8 20 -12 23 -9 4 4 13 1 22 -6
13 -11 14 -10 9 4 -3 9 -2 16 2 17 50 4 84 3 84 -3 0 -5 7 -8 17 -8 13 0 11 4
-7 20 -13 11 -18 20 -11 20 17 0 61 -46 53 -56 -4 -4 -1 -4 6 0 7 4 10 12 7
17 -6 9 19 41 27 34 2 -2 4 5 5 15 1 11 -3 23 -9 26 -7 4 -8 2 -4 -4 9 -15
-29 -56 -44 -47 -6 4 -9 12 -7 19 3 8 -5 11 -24 10 -16 -1 -32 3 -36 9 -3 6
-1 7 5 3 7 -4 12 -2 12 4 0 7 -7 9 -17 6 -10 -4 -25 2 -40 15 -12 13 -23 20
-23 16z m-67 -150 c3 -8 -3 -14 -14 -14 -21 -2 -26 13 -6 20 6 3 13 6 13 6 1
1 4 -5 7 -12z m3 -125 c-8 -9 -18 -13 -22 -10 -8 9 19 37 29 31 5 -3 2 -12 -7
-21z"/>
<path d="M10925 9469 c-4 -6 -3 -15 3 -21 6 -6 11 -4 15 6 7 18 -9 31 -18 15z"/>
<path d="M10690 9450 c0 -6 7 -10 15 -10 8 0 15 2 15 4 0 2 -7 6 -15 10 -8 3
-15 1 -15 -4z"/>
<path d="M10805 9450 c3 -5 8 -10 11 -10 2 0 4 5 4 10 0 6 -5 10 -11 10 -5 0
-7 -4 -4 -10z"/>
<path d="M10155 9441 c-3 -6 -1 -10 6 -9 6 2 12 -7 14 -19 1 -14 -4 -23 -12
-23 -12 0 -12 -3 1 -15 20 -21 21 -20 21 19 0 38 -18 66 -30 47z"/>
<path d="M10885 9440 c-3 -6 1 -7 9 -4 18 7 21 14 7 14 -6 0 -13 -4 -16 -10z"/>
<path d="M10257 9418 c9 -10 17 -18 19 -18 1 0 0 8 -3 18 -2 10 -11 19 -19 19
-11 0 -11 -4 3 -19z"/>
<path d="M10338 9419 c18 -19 15 -31 -6 -20 -14 7 -18 6 -19 -9 -1 -15 3 -17
25 -11 17 5 26 14 24 24 -2 12 2 15 15 10 10 -3 15 -3 12 1 -4 4 -19 9 -35 12
-23 4 -27 3 -16 -7z"/>
<path d="M10769 9419 c-6 -3 -4 -11 6 -19 9 -7 14 -19 11 -26 -3 -7 -1 -16 4
-19 6 -4 10 3 10 14 0 11 -4 23 -10 26 -24 15 -7 24 20 10 34 -18 40 -18 40
-5 0 6 -3 9 -7 9 -19 -3 -34 2 -29 9 5 9 -30 10 -45 1z"/>
<path d="M10919 9418 c-1 -7 -1 -19 0 -25 1 -8 -5 -10 -16 -7 -13 4 -14 3 -5
-3 7 -6 12 -15 10 -20 -2 -6 2 -11 7 -11 6 -1 9 6 7 15 -2 8 0 13 5 10 4 -3 8
8 9 24 1 28 -15 43 -17 17z"/>
<path d="M10281 9391 c-8 -5 -9 -11 -3 -15 5 -3 12 1 16 9 6 17 6 18 -13 6z"/>
<path d="M10382 9384 c-7 -8 -8 -14 -3 -14 10 0 25 19 20 25 -2 1 -10 -3 -17
-11z"/>
<path d="M10750 9380 c0 -5 5 -10 11 -10 5 0 7 5 4 10 -3 6 -8 10 -11 10 -2 0
-4 -4 -4 -10z"/>
<path d="M10587 9359 c7 -7 15 -10 18 -7 3 3 -2 9 -12 12 -14 6 -15 5 -6 -5z"/>
<path d="M10400 9346 c7 -7 13 -7 20 0 6 6 3 10 -10 10 -13 0 -16 -4 -10 -10z"/>
<path d="M10750 9350 c0 -5 5 -10 11 -10 5 0 7 5 4 10 -3 6 -8 10 -11 10 -2 0
-4 -4 -4 -10z"/>
<path d="M10170 9340 c0 -5 5 -10 11 -10 5 0 7 5 4 10 -3 6 -8 10 -11 10 -2 0
-4 -4 -4 -10z"/>
<path d="M10879 9312 c6 -11 7 -23 3 -27 -4 -4 -1 -6 7 -3 23 7 23 22 0 36
-18 12 -19 11 -10 -6z"/>
<path d="M10785 9310 c-3 -5 1 -10 10 -10 9 0 13 5 10 10 -3 6 -8 10 -10 10
-2 0 -7 -4 -10 -10z"/>
<path d="M10342 9279 c5 -16 15 -29 21 -29 8 0 8 3 0 11 -6 6 -9 17 -7 24 3 7
-2 15 -10 18 -12 5 -13 1 -4 -24z"/>
<path d="M10382 9292 c15 -17 21 -75 8 -67 -6 3 -10 1 -10 -5 0 -19 22 -6 31
19 6 14 5 20 -1 16 -6 -4 -8 6 -6 22 2 22 -1 29 -15 29 -14 0 -15 -3 -7 -14z"/>
<path d="M10630 9303 c0 -5 5 -15 10 -23 7 -12 9 -10 7 8 -1 19 -17 33 -17 15z"/>
<path d="M10860 9300 c0 -5 5 -10 11 -10 5 0 7 5 4 10 -3 6 -8 10 -11 10 -2 0
-4 -4 -4 -10z"/>
<path d="M10850 9269 c-13 -9 -12 -10 3 -5 9 3 17 1 17 -4 0 -6 5 -10 11 -10
13 0 7 22 -7 27 -5 1 -16 -2 -24 -8z"/>
<path d="M10792 9243 c6 -8 20 -12 30 -10 12 4 18 0 18 -11 0 -15 2 -15 10 -2
11 18 -5 30 -33 22 -12 -3 -18 -1 -14 5 3 5 0 10 -8 10 -12 0 -12 -3 -3 -14z"/>
<path d="M10570 9246 c0 -2 7 -7 16 -10 8 -3 12 -2 9 4 -6 10 -25 14 -25 6z"/>
<path d="M10432 9226 c7 -8 15 -12 17 -11 5 6 -10 25 -20 25 -5 0 -4 -6 3 -14z"/>
<path d="M10637 9229 c7 -7 15 -10 18 -7 3 3 -2 9 -12 12 -14 6 -15 5 -6 -5z"/>
<path d="M10570 9220 c0 -5 5 -10 11 -10 5 0 7 5 4 10 -3 6 -8 10 -11 10 -2 0
-4 -4 -4 -10z"/>
<path d="M10613 9212 c1 -14 5 -18 11 -12 7 7 6 14 -1 21 -9 9 -12 7 -10 -9z"/>
<path d="M10773 9212 c13 -14 15 -21 6 -24 -10 -3 -10 -6 -1 -12 7 -4 12 -2
12 4 0 6 4 8 10 5 5 -3 7 0 5 7 -3 7 -15 20 -28 27 -22 14 -22 13 -4 -7z"/>
<path d="M10170 9204 c0 -8 5 -12 10 -9 6 4 8 11 5 16 -9 14 -15 11 -15 -7z"/>
<path d="M10334 9202 c11 -12 16 -25 11 -30 -4 -4 -10 -1 -12 6 -3 6 -9 12
-14 12 -6 0 -7 -5 -4 -10 9 -14 -14 -42 -28 -33 -5 3 -7 1 -3 -5 3 -5 0 -13
-6 -15 -10 -4 -10 -6 0 -6 6 -1 22 9 34 21 19 19 22 20 33 5 14 -20 26 -12 18
11 -9 24 47 -27 57 -53 8 -18 9 -18 9 -2 1 10 -7 26 -16 35 -15 16 -15 17 0
20 10 2 14 9 10 20 -4 12 0 11 16 -6 12 -12 20 -26 17 -30 -3 -4 4 -13 15 -20
11 -7 19 -8 19 -2 0 5 -5 10 -11 10 -6 0 -9 5 -7 12 3 7 -9 24 -26 37 -21 18
-31 22 -34 13 -3 -10 -10 -9 -29 4 -14 9 -22 11 -19 5 11 -17 -5 -13 -28 7
-21 17 -21 17 -2 -6z"/>
<path d="M10696 9212 c-2 -4 -1 -14 3 -21 6 -10 10 -9 14 3 6 16 -8 32 -17 18z"/>
<path d="M10852 9203 c-6 -3 -10 -9 -7 -13 3 -5 -4 -18 -16 -29 -20 -18 -19
-48 2 -35 9 5 42 75 37 79 -2 1 -9 0 -16 -2z"/>
<path d="M10162 9165 c-11 -12 -10 -15 2 -15 10 0 13 -6 10 -15 -4 -8 -11 -12
-18 -8 -6 4 -6 1 2 -9 10 -13 10 -17 -1 -21 -15 -6 -13 -105 3 -121 6 -6 10
-15 10 -20 0 -6 -5 -4 -10 4 -8 13 -10 12 -10 -2 0 -10 4 -18 9 -18 5 0 8 -12
6 -27 -1 -16 4 -41 10 -57 11 -26 12 -27 18 -7 3 13 -1 24 -11 31 -16 9 -16 9
1 10 9 0 17 5 17 11 0 5 -6 7 -12 3 -9 -5 -10 -4 -3 4 6 6 21 13 35 15 13 2
26 9 28 15 4 13 -32 34 -44 24 -5 -4 -2 1 5 11 15 19 32 23 29 6 -2 -6 3 -14
10 -16 9 -4 11 3 8 21 l-5 26 32 -22 32 -22 -20 24 c-14 16 -16 24 -7 27 6 3
9 10 5 16 -3 7 2 5 13 -4 10 -9 26 -20 34 -24 13 -8 13 -7 1 8 -17 21 -7 22
25 1 22 -15 24 -15 18 0 -4 11 -1 16 12 16 11 0 26 5 34 11 12 9 12 10 -3 5
-11 -4 -31 3 -48 15 -31 22 -39 18 -14 -8 9 -8 13 -18 10 -21 -3 -3 -12 4 -21
16 -16 23 -44 30 -44 11 0 -5 5 -7 10 -4 6 3 10 2 10 -3 0 -5 -19 -8 -42 -7
-26 1 -42 7 -41 13 2 6 -7 17 -20 23 -19 11 -20 10 -10 -2 10 -12 8 -15 -8
-16 -21 -2 -21 -1 -21 70 0 49 -5 56 -26 32z m57 -166 c-15 -9 -32 -2 -24 11
3 5 13 6 21 3 12 -4 13 -8 3 -14z m3 -61 c-9 -9 -15 -9 -24 0 -9 9 -7 12 12
12 19 0 21 -3 12 -12z"/>
<path d="M10490 9155 c0 -8 7 -15 15 -15 9 0 12 6 9 15 -4 8 -10 15 -15 15 -5
0 -9 -7 -9 -15z"/>
<path d="M10675 9150 c3 -6 -5 -10 -19 -10 -14 0 -26 -5 -26 -10 0 -6 11 -8
26 -4 19 5 25 4 20 -5 -4 -6 -12 -8 -18 -5 -6 4 -9 1 -6 -6 2 -8 10 -16 18
-18 7 -3 10 0 6 7 -4 6 0 11 9 11 9 0 14 -4 11 -9 -3 -5 1 -11 9 -15 21 -8 19
8 -5 29 -14 12 -17 21 -9 25 7 5 5 9 -6 13 -9 4 -13 3 -10 -3z"/>
<path d="M10536 9142 c-3 -5 1 -9 9 -9 8 0 12 4 9 9 -3 4 -7 8 -9 8 -2 0 -6
-4 -9 -8z"/>
<path d="M10304 9117 c-12 -14 -7 -37 7 -37 6 0 7 5 4 10 -3 6 -2 10 4 10 5 0
11 -6 14 -12 2 -7 8 -9 13 -5 4 4 -1 16 -12 27 -14 14 -22 16 -30 7z"/>
<path d="M10370 9119 c0 -5 -4 -7 -10 -4 -6 3 -7 -1 -4 -9 7 -17 14 -19 38
-10 13 5 14 9 5 20 -14 17 -29 18 -29 3z"/>
<path d="M10235 9111 c-3 -5 -2 -12 3 -15 5 -3 9 1 9 9 0 17 -3 19 -12 6z"/>
<path d="M10745 9100 c-3 -5 -1 -10 4 -10 6 0 11 5 11 10 0 6 -2 10 -4 10 -3
0 -8 -4 -11 -10z"/>
<path d="M10762 9082 c-24 -49 -26 -56 -13 -47 10 6 11 3 2 -13 -9 -17 -7 -20
13 -24 33 -7 55 28 29 47 -17 13 -17 13 2 12 12 -1 20 4 20 13 0 8 4 21 8 28
5 6 4 12 -2 12 -5 0 -13 -5 -16 -10 -5 -7 -11 -8 -19 -1 -8 7 -15 1 -24 -17z"/>
<path d="M10575 9080 c3 -5 8 -10 11 -10 2 0 4 5 4 10 0 6 -5 10 -11 10 -5 0
-7 -4 -4 -10z"/>
<path d="M10266 9067 c-16 -12 -16 -14 -3 -14 9 0 18 6 21 14 3 7 4 13 3 13
-2 0 -11 -6 -21 -13z"/>
<path d="M10266 8977 c3 -10 9 -15 12 -12 3 3 0 11 -7 18 -10 9 -11 8 -5 -6z"/>
<path d="M10763 8969 c-2 -22 12 -25 20 -5 3 8 0 16 -7 19 -6 3 -13 -4 -13
-14z"/>
<path d="M10337 8969 c7 -7 15 -10 18 -7 3 3 -2 9 -12 12 -14 6 -15 5 -6 -5z"/>
<path d="M10447 8959 c7 -7 15 -10 18 -7 3 3 -2 9 -12 12 -14 6 -15 5 -6 -5z"/>
<path d="M10273 8935 c0 -8 4 -15 9 -15 4 0 8 7 8 15 0 8 -4 15 -8 15 -5 0 -9
-7 -9 -15z"/>
<path d="M10311 8915 c9 -11 14 -26 12 -32 -6 -18 4 -16 10 1 3 8 -4 22 -16
33 -22 18 -22 18 -6 -2z"/>
<path d="M10373 8887 c-80 -45 -85 -170 -8 -221 25 -17 45 -20 94 -17 13 0 41
18 62 40 35 35 39 44 39 91 0 46 -4 56 -34 86 -29 29 -40 34 -82 34 -27 -1
-59 -6 -71 -13z"/>
<path d="M10700 8809 c0 -5 5 -7 10 -4 6 3 10 8 10 11 0 2 -4 4 -10 4 -5 0
-10 -5 -10 -11z"/>
<path d="M10635 8710 c-3 -6 4 -10 17 -10 18 0 20 -2 8 -10 -9 -6 -10 -10 -3
-10 16 0 23 13 15 25 -10 14 -30 16 -37 5z"/>
<path d="M10296 8673 c-6 -14 -5 -15 5 -6 7 7 10 15 7 18 -3 3 -9 -2 -12 -12z"/>
<path d="M10567 8679 c7 -9 10 -19 6 -23 -4 -4 0 -4 10 0 9 3 17 14 16 23 0
11 -2 12 -6 3 -4 -10 -8 -10 -21 0 -15 11 -15 11 -5 -3z"/>
<path d="M12130 12580 c0 -5 5 -10 10 -10 6 0 10 5 10 10 0 6 -4 10 -10 10 -5
0 -10 -4 -10 -10z"/>
<path d="M17740 9729 c-20 -4 -47 -21 -63 -40 -26 -29 -29 -37 -25 -85 5 -62
31 -97 84 -114 102 -34 197 77 156 182 -20 48 -84 73 -152 57z"/>
<path d="M16640 7900 c0 -5 7 -7 15 -4 8 4 15 8 15 10 0 2 -7 4 -15 4 -8 0
-15 -4 -15 -10z"/>
<path d="M16415 7121 c-3 -5 -2 -12 3 -15 5 -3 9 1 9 9 0 17 -3 19 -12 6z"/>
<path d="M18858 5170 c-36 -21 -218 -352 -218 -397 0 -23 1 -23 124 -23 l124
0 27 33 c15 17 91 97 168 177 155 161 170 180 161 204 -5 14 -28 16 -188 16
-100 0 -189 -5 -198 -10z"/>
<path d="M12595 4604 c-152 -25 -266 -78 -388 -179 -117 -97 -202 -226 -264
-400 -26 -76 -28 -89 -28 -250 1 -180 9 -234 59 -357 76 -188 238 -350 429
-431 208 -87 518 -90 719 -6 89 37 212 125 284 202 81 87 150 210 190 342 26
82 28 103 28 245 -1 138 -4 165 -28 243 -67 224 -189 381 -383 496 -164 96
-399 132 -618 95z m257 -365 c133 -28 253 -121 306 -236 46 -99 61 -238 39
-347 -20 -99 -54 -168 -109 -224 -100 -103 -183 -137 -333 -137 -91 0 -106 3
-165 31 -168 80 -260 237 -260 444 0 101 16 166 60 249 93 173 273 260 462
220z"/>
<path d="M20000 4614 c-159 -29 -194 -40 -275 -79 -226 -110 -378 -291 -447
-532 -30 -102 -32 -348 -5 -458 38 -150 150 -335 259 -426 168 -139 340 -198
580 -199 265 0 459 78 626 255 118 124 173 225 213 392 18 73 20 109 16 213
-11 300 -115 510 -329 669 -158 118 -282 160 -488 166 -69 2 -136 2 -150 -1z
m213 -380 c86 -22 132 -48 199 -112 103 -98 144 -212 136 -381 -10 -203 -108
-352 -278 -422 -45 -19 -74 -23 -165 -23 -103 -1 -114 1 -177 31 -166 78 -258
237 -258 443 1 103 12 154 52 239 88 184 291 277 491 225z"/>
<path d="M7275 4582 c-75 -26 -98 -65 -93 -162 4 -84 20 -123 61 -154 26 -19
46 -21 230 -26 l201 -5 2 -588 c3 -656 1 -636 73 -684 29 -20 47 -23 128 -23
113 0 151 14 184 66 l24 39 5 595 5 595 202 5 202 5 30 29 c36 35 51 80 51
156 0 69 -24 118 -70 145 -34 19 -52 20 -610 22 -522 2 -580 1 -625 -15z"/>
<path d="M8857 4585 c-36 -12 -53 -25 -75 -57 l-27 -42 0 -515 0 -516 28 -80
c61 -172 165 -296 315 -373 122 -63 192 -77 372 -77 176 0 238 12 359 71 105
52 217 161 264 257 71 145 70 136 74 702 l4 510 -23 45 c-35 69 -72 85 -195
85 -110 0 -132 -9 -177 -69 -20 -27 -21 -42 -26 -529 l-5 -502 -28 -57 c-51
-104 -143 -155 -266 -146 -121 9 -221 79 -256 180 -17 48 -19 99 -24 533 -6
459 -7 481 -26 515 -12 19 -36 43 -54 54 -45 26 -168 32 -234 11z"/>
<path d="M10437 4586 c-60 -16 -84 -39 -98 -89 -15 -58 -3 -84 169 -345 136
-207 341 -517 384 -581 16 -23 18 -55 18 -271 0 -274 4 -294 69 -337 29 -20
47 -23 131 -23 84 0 101 3 130 23 75 50 74 49 80 345 l5 267 189 285 c293 443
332 503 350 537 36 71 10 155 -59 187 -31 15 -58 17 -151 14 -157 -5 -166 -12
-335 -297 -51 -86 -117 -194 -146 -240 -29 -46 -53 -88 -53 -92 0 -18 -15 -8
-31 19 -137 230 -316 522 -333 540 -41 46 -95 65 -186 69 -50 2 -104 -3 -133
-11z"/>
<path d="M16666 4590 c-34 -11 -73 -45 -91 -80 -15 -30 -29 -122 -50 -330 -8
-85 -19 -198 -25 -250 -20 -187 -70 -763 -72 -820 -2 -67 20 -113 72 -147 29
-20 46 -23 130 -23 84 0 101 3 130 23 61 40 67 62 94 328 14 134 30 312 37
394 11 138 14 165 22 154 1 -2 37 -89 79 -194 189 -466 212 -518 248 -550 19
-17 36 -20 134 -20 157 0 152 -5 258 242 47 109 114 271 149 360 35 89 67 162
70 163 7 0 23 -139 39 -335 37 -460 49 -518 113 -548 45 -22 202 -23 252 -3
77 33 88 93 61 352 -8 77 -22 220 -30 319 -9 99 -20 218 -26 265 -6 47 -21
199 -35 339 -27 276 -33 297 -93 338 -38 25 -137 39 -219 29 -110 -13 -127
-32 -219 -250 -42 -100 -96 -226 -119 -281 -24 -55 -76 -180 -115 -278 l-73
-178 -37 88 c-34 81 -143 335 -269 626 -83 191 -107 235 -144 254 -37 20 -222
29 -271 13z"/>
<path d="M18694 4580 c-25 -13 -49 -35 -62 -59 l-22 -39 0 -712 c0 -787 -3
-755 64 -803 26 -18 47 -23 131 -25 91 -3 103 -2 134 20 19 13 43 37 53 55 18
30 19 69 18 749 0 815 5 768 -80 812 -60 30 -176 31 -236 2z"/>
<path d="M14751 4184 c0 -11 3 -14 6 -6 3 7 2 16 -1 19 -3 4 -6 -2 -5 -13z"/>
<path d="M14760 4148 c0 -17 24 -57 38 -63 14 -5 14 -4 0 12 -8 10 -20 27 -26
38 -6 11 -12 17 -12 13z"/>
<path d="M14940 4078 c-19 -16 -26 -26 -15 -20 18 9 64 53 54 52 -2 -1 -20
-15 -39 -32z"/>
<path d="M14875 4040 c-3 -6 1 -7 9 -4 18 7 21 14 7 14 -6 0 -13 -4 -16 -10z"/>
<path d="M15200 3930 c-8 -11 -20 -20 -26 -20 -7 0 -15 -7 -18 -16 -4 -11 1
-10 24 6 31 22 45 39 38 45 -2 3 -10 -4 -18 -15z"/>
<path d="M15365 3790 c-9 -16 -13 -30 -11 -30 3 0 12 14 21 30 9 17 13 30 11
30 -3 0 -12 -13 -21 -30z"/>
<path d="M14379 3783 c-13 -16 -12 -17 4 -4 16 13 21 21 13 21 -2 0 -10 -8
-17 -17z"/>
<path d="M15636 3625 c-9 -26 -7 -32 5 -12 6 10 9 21 6 23 -2 3 -7 -2 -11 -11z"/>
<path d="M15610 3579 c0 -5 5 -7 10 -4 6 3 10 8 10 11 0 2 -4 4 -10 4 -5 0
-10 -5 -10 -11z"/>
<path d="M14590 3342 c0 -5 12 -19 27 -33 l26 -24 -23 33 c-25 33 -30 38 -30
24z"/>
<path d="M15205 3078 c-11 -6 -28 -19 -38 -29 -10 -9 -36 -24 -57 -34 -22 -10
-40 -22 -40 -27 0 -15 14 -9 69 30 29 20 65 45 80 54 29 20 18 24 -14 6z"/>
<path d="M15254 3071 c4 -6 16 -16 28 -22 15 -8 18 -8 14 0 -4 6 -16 16 -28
22 -15 8 -18 8 -14 0z"/>
<path d="M15330 3019 c34 -29 116 -66 165 -74 l40 -6 -40 16 c-22 9 -55 20
-73 25 -19 4 -41 15 -50 23 -9 8 -28 20 -42 26 l-25 12 25 -22z"/>
<path d="M15047 2992 c2 -3 -7 -12 -19 -19 l-23 -14 25 7 c32 8 36 12 23 23
-5 5 -8 6 -6 3z"/>
<path d="M11428 2499 c-16 -9 -18 -26 -18 -125 l0 -114 -40 29 c-53 38 -106
47 -156 26 -84 -35 -123 -101 -124 -208 0 -141 66 -217 189 -217 49 0 65 4 89
25 17 14 33 25 36 25 3 0 6 -11 6 -25 0 -21 5 -25 29 -25 17 0 33 6 38 13 4 6
9 140 11 297 2 260 1 286 -15 297 -20 15 -23 15 -45 2z m-80 -255 c36 -25 52
-68 52 -139 0 -105 -33 -148 -111 -147 -47 1 -83 24 -103 67 -20 42 -21 118
-1 158 31 65 113 96 163 61z"/>
<path d="M14977 2498 c-25 -20 -27 -53 -20 -340 l6 -268 28 0 c18 0 32 7 39
19 6 12 10 124 10 295 0 236 -2 277 -16 290 -19 19 -25 20 -47 4z"/>
<path d="M18412 2494 c-12 -8 -22 -26 -22 -39 0 -25 24 -55 43 -55 25 0 57 32
57 55 0 20 -32 55 -50 55 -3 0 -16 -7 -28 -16z"/>
<path d="M19496 2494 c-14 -13 -16 -54 -16 -297 0 -155 4 -288 9 -295 5 -8 22
-12 42 -10 l34 3 3 289 c2 258 1 291 -14 308 -21 22 -38 23 -58 2z"/>
<path d="M7635 2490 c-12 -19 -10 -579 2 -591 6 -6 21 -9 34 -7 l24 3 3 200
c1 110 6 203 10 207 4 4 46 -65 93 -155 55 -105 91 -163 103 -165 30 -6 53 25
133 179 43 81 79 146 81 144 2 -2 3 -91 2 -198 -1 -209 2 -222 52 -215 l23 3
3 280 c1 154 0 290 -3 303 -6 25 -45 31 -63 10 -5 -7 -54 -96 -108 -198 -53
-102 -99 -187 -101 -189 -8 -11 -34 31 -128 207 -88 164 -104 187 -127 190
-14 2 -29 -2 -33 -8z"/>
<path d="M10237 2493 c-4 -3 -7 -57 -7 -120 0 -71 -4 -113 -10 -113 -6 0 -13
7 -16 15 -3 8 -26 24 -50 36 -57 27 -116 20 -171 -20 -57 -41 -78 -90 -78
-181 0 -98 28 -159 89 -195 59 -34 139 -35 189 -1 l36 25 3 -22 c2 -16 11 -23
32 -25 16 -2 32 0 37 5 4 4 9 135 10 290 2 217 -1 286 -11 298 -13 15 -42 20
-53 8z m-82 -248 c46 -23 60 -55 60 -146 0 -75 -1 -80 -33 -111 -27 -28 -39
-33 -77 -32 -75 2 -115 54 -115 152 0 45 5 67 23 93 38 57 84 71 142 44z"/>
<path d="M12286 2485 c-15 -15 -16 -46 -12 -303 2 -158 4 -288 5 -290 1 -2 18
-2 39 0 l37 3 5 120 5 120 111 2 c129 2 169 15 208 66 58 76 39 211 -35 256
-38 23 -68 28 -230 36 -100 5 -119 4 -133 -10z m282 -71 c47 -18 67 -51 65
-106 -2 -48 -25 -85 -59 -98 -14 -6 -68 -10 -120 -10 l-94 0 0 110 0 109 58 4
c31 2 69 4 84 5 15 1 45 -5 66 -14z"/>
<path d="M13872 2488 c-20 -20 -14 -56 12 -73 33 -22 76 -3 76 35 0 33 -17 50
-50 50 -14 0 -31 -5 -38 -12z"/>
<path d="M16813 2482 c-11 -11 -13 -68 -11 -300 l3 -287 28 -3 c51 -6 57 9 54
125 -2 58 0 106 6 110 5 3 55 7 111 10 124 5 157 15 195 59 37 42 45 69 39
140 -6 67 -29 102 -89 131 -37 18 -65 22 -183 25 -108 3 -142 1 -153 -10z
m297 -81 c56 -40 63 -114 15 -168 -22 -27 -29 -28 -129 -33 l-106 -5 0 111 c0
61 2 113 4 115 2 2 46 3 98 1 69 -2 99 -8 118 -21z"/>
<path d="M18142 2439 c-13 -5 -20 -14 -17 -20 4 -6 4 -30 0 -55 -5 -37 -10
-44 -29 -44 -12 0 -31 -6 -42 -14 -27 -20 -8 -49 37 -56 l33 -5 2 -127 c1
-143 11 -178 59 -208 44 -27 131 -28 138 -1 7 27 -3 37 -42 45 -66 12 -71 24
-71 168 l0 128 50 0 c54 0 76 19 59 52 -7 14 -22 18 -59 18 l-49 0 -3 56 c-3
63 -21 79 -66 63z"/>
<path d="M13609 2438 c-2 -3 -6 -61 -8 -100 -1 -13 -9 -18 -28 -18 -39 0 -55
-13 -51 -41 2 -19 10 -25 40 -29 l38 -5 4 -136 c5 -150 14 -177 67 -205 36
-18 113 -18 128 0 17 20 3 46 -25 46 -37 0 -72 20 -84 49 -6 16 -10 72 -8 136
l3 110 57 3 c48 2 58 6 64 24 9 30 -19 48 -73 48 -42 0 -43 1 -43 34 0 59 -15
86 -50 86 -16 0 -31 -1 -31 -2z"/>
<path d="M8441 2315 c-88 -28 -136 -102 -135 -210 1 -101 44 -177 117 -204 51
-20 155 -14 198 11 72 40 64 106 -9 69 -109 -56 -218 -19 -225 75 l-2 29 145
5 145 5 -1 51 c-3 130 -110 208 -233 169z m118 -71 c25 -18 55 -79 46 -94 -4
-6 -53 -10 -111 -10 -103 0 -104 0 -104 24 0 28 34 74 64 86 34 14 80 11 105
-6z"/>
<path d="M9198 2321 c-130 -42 -188 -197 -122 -329 29 -59 60 -85 122 -102 85
-22 202 22 202 76 0 34 -23 40 -62 16 -81 -49 -155 -33 -188 40 -11 24 -20 59
-20 78 0 50 38 121 79 144 36 20 57 18 138 -15 25 -10 36 -10 44 -2 19 19 2
59 -34 76 -41 20 -124 29 -159 18z"/>
<path d="M9600 2323 c-53 -9 -88 -25 -110 -48 -20 -21 -21 -27 -10 -41 15 -17
30 -15 95 10 56 21 98 20 129 -5 22 -17 27 -28 24 -58 l-3 -36 -91 -6 c-100
-7 -122 -15 -153 -55 -53 -67 1 -178 96 -198 46 -10 100 3 126 30 22 23 38 31
36 17 -6 -35 2 -44 34 -41 l32 3 0 177 c0 174 0 177 -25 203 -14 15 -32 30
-40 35 -20 10 -109 19 -140 13z m135 -243 c12 -19 -6 -69 -35 -100 -22 -23
-37 -30 -66 -30 -46 0 -84 32 -84 69 0 34 10 48 40 60 33 13 137 14 145 1z"/>
<path d="M11705 2312 c-114 -53 -159 -200 -99 -320 36 -72 87 -102 177 -102
73 0 111 11 145 42 51 48 10 83 -57 48 -51 -25 -127 -26 -159 -2 -23 18 -54
90 -45 104 2 5 67 8 143 8 137 0 140 0 145 23 8 29 -11 111 -31 142 -41 62
-148 90 -219 57z m127 -63 c21 -11 60 -87 52 -101 -6 -9 -208 -11 -217 -2 -11
11 15 64 45 89 32 27 84 33 120 14z"/>
<path d="M13407 2315 c-22 -7 -49 -23 -62 -35 l-23 -22 -4 28 c-2 23 -9 30
-30 32 -18 2 -30 -3 -36 -15 -10 -19 -14 -340 -5 -385 4 -22 11 -28 32 -28 46
0 51 14 51 149 0 113 2 128 22 157 24 34 56 54 88 54 33 0 50 12 50 36 0 13
-9 28 -19 34 -23 12 -17 12 -64 -5z"/>
<path d="M14190 2318 c-91 -26 -139 -99 -140 -212 0 -84 25 -144 78 -184 32
-25 43 -27 123 -27 99 0 141 20 147 69 5 39 -19 42 -83 10 -51 -24 -60 -26
-96 -15 -122 37 -109 273 16 297 22 4 49 -1 83 -16 56 -24 82 -21 82 8 0 27
-31 51 -86 68 -54 16 -74 16 -124 2z"/>
<path d="M15230 2311 c-74 -26 -97 -60 -57 -85 12 -7 26 -5 53 8 21 9 59 20
85 23 42 5 50 2 74 -21 20 -20 25 -34 23 -59 l-3 -32 -86 -6 c-132 -9 -185
-49 -175 -133 6 -53 34 -87 89 -110 40 -17 52 -18 87 -7 23 7 50 21 61 32 12
12 21 19 22 17 18 -35 28 -43 53 -43 l29 0 0 177 c0 174 0 177 -25 204 -52 56
-132 68 -230 35z m180 -255 c0 -51 -54 -106 -104 -106 -59 0 -104 57 -77 98
12 20 80 41 134 42 l47 0 0 -34z"/>
<path d="M16245 2324 c-93 -23 -140 -59 -114 -90 15 -19 28 -18 80 6 91 41
169 14 169 -59 l0 -38 -88 -5 c-127 -7 -182 -42 -182 -116 0 -121 158 -184
241 -96 l24 26 5 -29 c5 -24 10 -28 40 -28 l35 0 3 160 c2 175 -5 208 -59 247
-25 19 -114 32 -154 22z m135 -270 c0 -72 -89 -127 -151 -93 -24 12 -42 55
-34 79 8 26 71 49 133 49 l52 1 0 -36z"/>
<path d="M17455 2322 c-87 -9 -153 -49 -139 -85 8 -21 36 -22 75 -1 17 8 51
18 77 21 39 4 52 1 75 -17 23 -18 28 -29 25 -59 l-3 -36 -92 -6 c-79 -5 -97
-9 -127 -33 -46 -35 -55 -78 -28 -139 25 -56 62 -77 137 -79 48 -1 59 2 84 26
l29 28 4 -23 c2 -19 10 -25 36 -27 46 -5 50 16 43 193 -6 161 -15 190 -63 216
-28 15 -92 25 -133 21z m115 -265 c0 -57 -45 -106 -97 -107 -45 0 -62 9 -79
42 -31 60 14 97 119 98 l57 0 0 -33z"/>
<path d="M18705 2314 c-83 -31 -128 -103 -128 -204 1 -97 39 -172 106 -207 80
-41 238 -3 245 60 5 39 -22 46 -72 17 -101 -58 -196 -1 -196 119 0 51 15 89
47 123 37 38 73 44 129 19 51 -23 63 -25 83 -12 22 14 3 50 -37 70 -53 27
-129 33 -177 15z"/>
<path d="M19792 2320 c-76 -16 -126 -59 -106 -91 8 -13 42 -8 104 17 63 24
114 14 136 -28 9 -16 13 -40 10 -53 -5 -20 -13 -22 -95 -28 -98 -6 -132 -21
-157 -68 -19 -38 -18 -78 6 -116 25 -42 72 -65 136 -67 45 -1 57 3 83 28 l31
30 0 -27 c0 -23 4 -27 30 -27 23 0 33 6 40 25 14 37 1 325 -16 352 -29 46
-119 70 -202 53z m146 -268 c5 -47 -51 -102 -102 -102 -62 0 -106 61 -73 102
23 29 52 38 112 35 60 -2 60 -2 63 -35z"/>
<path d="M20296 2320 c-16 -5 -42 -21 -57 -36 l-29 -28 0 27 c0 20 -6 28 -25
33 -52 13 -56 0 -53 -220 l3 -201 35 0 35 0 5 135 c3 74 10 144 17 155 20 35
49 56 89 62 22 3 45 10 52 16 18 14 15 45 -7 57 -22 11 -25 11 -65 0z"/>
<path d="M8786 2305 c-13 -14 -16 -43 -16 -184 0 -93 3 -183 6 -200 6 -27 11
-31 39 -31 42 0 45 11 45 158 0 154 19 188 114 201 75 11 72 71 -4 71 -25 0
-50 -9 -78 -30 l-41 -29 -3 27 c-4 32 -37 42 -62 17z"/>
<path d="M10510 2309 c-117 -49 -156 -254 -68 -355 44 -50 77 -64 154 -64 84
0 135 26 172 90 23 39 27 56 27 127 0 74 -3 85 -30 124 -49 68 -76 83 -158 86
-40 2 -83 -2 -97 -8z m166 -82 c43 -50 51 -153 17 -219 -28 -57 -117 -74 -166
-31 -68 61 -59 234 15 271 38 19 109 8 134 -21z"/>
<path d="M12843 2295 c-39 -18 -53 -30 -53 -45 0 -31 25 -35 86 -11 76 29 118
27 150 -4 19 -19 24 -34 22 -58 l-3 -32 -85 -7 c-111 -9 -127 -14 -156 -45
-44 -48 -23 -152 38 -184 64 -34 147 -29 184 12 l19 21 5 -24 c4 -15 14 -24
31 -26 46 -5 51 14 48 181 -4 169 -11 190 -72 227 -48 29 -146 27 -214 -5z
m207 -230 c0 -34 -24 -80 -52 -99 -30 -21 -81 -20 -106 2 -23 19 -36 61 -25
78 17 25 71 43 126 44 55 0 57 -1 57 -25z"/>
<path d="M13877 2314 c-4 -4 -7 -99 -7 -211 0 -221 0 -223 55 -209 l25 6 -2
208 -3 207 -30 3 c-17 2 -34 0 -38 -4z"/>
<path d="M14487 2313 c-4 -3 -7 -76 -7 -162 0 -172 9 -205 63 -245 41 -30 135
-29 176 2 36 27 49 28 47 5 -1 -13 8 -19 31 -21 42 -4 42 -4 40 233 l-2 190
-35 0 -35 0 -5 -145 c-3 -94 -10 -153 -18 -168 -20 -35 -71 -53 -115 -41 -60
16 -67 35 -67 190 0 76 -3 144 -6 153 -6 16 -54 22 -67 9z"/>
<path d="M15612 2308 c-9 -9 -12 -63 -12 -199 0 -103 3 -194 6 -203 7 -19 55
-21 72 -4 8 8 12 55 12 145 0 131 0 133 28 163 19 21 41 33 71 38 47 8 68 29
58 56 -13 33 -112 14 -148 -30 -13 -16 -14 -15 -19 12 -4 22 -11 30 -30 32
-14 2 -31 -3 -38 -10z"/>
<path d="M17783 2312 c-10 -6 -13 -60 -14 -204 0 -108 2 -202 6 -207 3 -6 19
-11 35 -11 37 0 39 7 42 172 3 118 5 128 27 152 13 14 40 28 60 32 57 9 69 14
75 29 11 29 -5 45 -46 45 -43 0 -71 -11 -105 -43 l-23 -20 0 31 c0 27 -4 32
-22 32 -13 0 -29 -4 -35 -8z"/>
<path d="M18404 2309 c-7 -13 -6 -398 2 -411 9 -15 62 -9 68 8 12 31 7 389 -6
402 -15 15 -55 16 -64 1z"/>
<path d="M19017 2314 c-4 -4 -7 -79 -7 -166 0 -177 7 -204 63 -238 23 -14 50
-20 94 -20 51 0 66 4 91 25 l30 25 6 -26 c6 -21 11 -25 39 -22 l32 3 3 186 c3
211 -3 242 -46 237 l-27 -3 -5 -145 c-6 -182 -20 -210 -104 -210 -82 0 -90 17
-96 205 l-5 150 -30 3 c-17 2 -34 0 -38 -4z"/>
</g>
</svg>
